<?xml version="1.0" encoding="iso-8859-1"?>
<!-- Generator: Adobe Illustrator 22.0.1, SVG Export Plug-In . SVG Version: 6.00 Build 0)  -->
<svg version="1.1" id="Layer_1" xmlns="http://www.w3.org/2000/svg" xmlns:xlink="http://www.w3.org/1999/xlink" x="0px" y="0px"
	 viewBox="0 0 48 48" style="enable-background:new 0 0 48 48;" xml:space="preserve">
<g>
	<circle style="opacity:0.2;fill:#00CCFF;enable-background:new    ;" cx="24" cy="24" r="24"/>
	<g>
		<path style="fill:#E5E5E5;" d="M47.153,18.399l-5.844,21.979c-0.259,0.851-1.044,1.433-1.933,1.433h-1.229H2.779
			c-1.116,0-2.021-0.905-2.021-2.021V7.706c0-1.116,0.905-2.021,2.021-2.021h33.347c1.116,0,2.021,0.905,2.021,2.021v8.084h0.705
			h0.305h6.062C46.577,15.789,47.548,17.101,47.153,18.399z"/>
		<path style="fill:#C1C1C1;" d="M47.153,18.399l-5.844,21.979c-0.259,0.851-1.044,1.433-1.933,1.433h-1.229V15.79h0.705h0.305
			h6.062C46.577,15.789,47.548,17.101,47.153,18.399z"/>
		<path style="fill:#9B9B9B;" d="M38.147,41.811L38.147,41.811V15.79h4.042l-2.901,25.019
			C39.214,41.382,38.726,41.811,38.147,41.811z"/>
		<path style="fill:#FFFFFF;" d="M2.338,41.811H2.2c-0.377,0-0.684-0.463-0.684-1.029V6.714c0-0.566,0.308-1.029,0.684-1.029h0.137
			c0.377,0,0.684,0.463,0.684,1.029v34.069C3.022,41.348,2.714,41.811,2.338,41.811z"/>
		<path style="fill:#00555F;" d="M47.213,15.874c-0.541-0.566-1.322-0.842-2.105-0.842h-3.93c-0.419,0-0.758,0.339-0.758,0.758
			c0,0.419,0.339,0.758,0.758,0.758h4.041c0.404,0,0.774,0.186,1.015,0.511s0.311,0.733,0.194,1.12l-5.843,21.979
			c-0.162,0.532-0.653,0.895-1.209,0.895h-0.471V25.072c0-0.419-0.339-0.758-0.758-0.758s-0.758,0.339-0.758,0.758v15.981H2.779
			c-0.698,0-1.263-0.566-1.263-1.263V7.706c0-0.698,0.566-1.263,1.263-1.263h33.347c0.698,0,1.263,0.566,1.263,1.263v12.85
			c0,0.419,0.339,0.758,0.758,0.758s0.758-0.339,0.758-0.758V7.706c0-1.535-1.244-2.779-2.779-2.779H2.779
			C1.244,4.927,0,6.171,0,7.706V39.79c0,1.535,1.244,2.779,2.779,2.779h36.596c1.223,0,2.302-0.8,2.659-1.97l5.843-21.979
			C48.172,17.652,47.931,16.624,47.213,15.874z"/>
	</g>
	<path style="fill:#30B8BF;" d="M6.035,20.114v-7.625c0-0.421,0.341-0.762,0.762-0.762h7.625c0.421,0,0.762,0.341,0.762,0.762v7.625
		c0,0.421-0.341,0.762-0.762,0.762H6.797C6.377,20.876,6.035,20.535,6.035,20.114z"/>
	<path style="fill:#4AE5E1;" d="M6.035,12.489v7.625c0,0.421,0.342,0.762,0.762,0.762h0.626c0.046-0.068,0.079-0.145,0.079-0.232
		V11.96c0-0.087-0.033-0.164-0.079-0.232H6.797C6.376,11.727,6.035,12.068,6.035,12.489z"/>
</g>
<g>
	<path style="fill:#00555F;" d="M27.189,31.375c0-0.419-0.33-0.758-0.738-0.758H5.542c-0.408,0-0.738,0.339-0.738,0.758
		s0.33,0.758,0.738,0.758h20.909C26.859,32.133,27.189,31.794,27.189,31.375z"/>
	<path style="fill:#00555F;" d="M33.34,30.618h-3.937c-0.408,0-0.738,0.339-0.738,0.758s0.33,0.758,0.738,0.758h3.937
		c0.408,0,0.738-0.339,0.738-0.758S33.748,30.618,33.34,30.618z"/>
</g>
<path style="fill:#00555F;" d="M33.335,15.525H20.453c-0.41,0-0.743,0.339-0.743,0.758c0,0.419,0.333,0.758,0.743,0.758h12.882
	c0.41,0,0.743-0.339,0.743-0.758S33.745,15.525,33.335,15.525z"/>
<path style="fill:#00555F;" d="M33.335,10.495H20.453c-0.41,0-0.743,0.339-0.743,0.758s0.333,0.758,0.743,0.758h12.882
	c0.41,0,0.743-0.339,0.743-0.758S33.745,10.495,33.335,10.495z"/>
<path style="fill:#00555F;" d="M33.335,20.556H20.453c-0.41,0-0.743,0.339-0.743,0.758s0.333,0.758,0.743,0.758h12.882
	c0.41,0,0.743-0.339,0.743-0.758S33.745,20.556,33.335,20.556z"/>
<g>
	<path style="fill:#00555F;" d="M4.804,26.345c0-0.419,0.33-0.758,0.738-0.758h9.1c0.408,0,0.738,0.339,0.738,0.758
		s-0.33,0.758-0.738,0.758h-9.1C5.134,27.103,4.804,26.763,4.804,26.345z"/>
	<path style="fill:#00555F;" d="M33.34,25.587H17.594c-0.408,0-0.738,0.339-0.738,0.758s0.33,0.758,0.738,0.758H33.34
		c0.408,0,0.738-0.339,0.738-0.758S33.748,25.587,33.34,25.587z"/>
</g>
<g>
	<path style="fill:#00555F;" d="M5.561,35.648c-0.419,0-0.758,0.339-0.758,0.758s0.339,0.758,0.758,0.758h15.306
		c0.419,0,0.758-0.339,0.758-0.758s-0.339-0.758-0.758-0.758H5.561z"/>
</g>
<path style="fill:#00555F;" d="M14.912,10.495H6.309c-0.83,0-1.505,0.675-1.505,1.505v8.603c0,0.83,0.675,1.505,1.505,1.505h8.603
	c0.83,0,1.505-0.675,1.505-1.505V12C16.417,11.17,15.742,10.495,14.912,10.495z M15.184,20.114c0,0.421-0.341,0.762-0.762,0.762
	H7.423H6.797c-0.42,0-0.762-0.341-0.762-0.762v-7.625c0-0.421,0.341-0.762,0.762-0.762h0.625h7c0.421,0,0.762,0.341,0.762,0.762
	V20.114z"/>
<g>
	<path style="fill:#00555F;" d="M26.203,36.223h-1.255c-0.133,0-0.248,0.096-0.271,0.228l-0.045,0.259
		c-0.014,0.081,0.008,0.162,0.06,0.225c0.053,0.062,0.129,0.098,0.211,0.098h0.621l-0.09,0.521c-0.029,0.021-0.057,0.04-0.086,0.055
		c-0.064,0.032-0.131,0.06-0.202,0.081c-0.069,0.02-0.141,0.033-0.215,0.042c-0.062,0.006-0.126,0.01-0.189,0.01
		c-0.102,0-0.198-0.012-0.269-0.043c-0.061-0.026-0.115-0.061-0.156-0.102c-0.049-0.052-0.088-0.105-0.117-0.169
		c-0.034-0.07-0.059-0.146-0.075-0.228c-0.018-0.088-0.028-0.176-0.03-0.271c-0.003-0.092,0.002-0.184,0.016-0.272l0.069-0.45
		c0.025-0.157,0.067-0.306,0.125-0.448c0.056-0.139,0.13-0.262,0.218-0.367c0.088-0.103,0.187-0.183,0.304-0.242
		c0.111-0.056,0.242-0.084,0.389-0.078c0.187,0.005,0.322,0.052,0.412,0.141c0.091,0.092,0.141,0.228,0.15,0.415
		c0.009,0.146,0.129,0.26,0.275,0.26h0.3c0.075,0,0.146-0.03,0.199-0.085c0.052-0.054,0.08-0.126,0.076-0.201
		c-0.008-0.197-0.045-0.378-0.112-0.544c-0.072-0.17-0.172-0.315-0.291-0.427c-0.12-0.117-0.27-0.211-0.444-0.275
		c-0.162-0.06-0.344-0.092-0.539-0.097c-0.202-0.003-0.364,0.017-0.525,0.064c-0.157,0.044-0.306,0.112-0.448,0.202
		c-0.135,0.087-0.257,0.192-0.364,0.314c-0.109,0.125-0.198,0.251-0.272,0.386c-0.077,0.139-0.14,0.283-0.19,0.437
		c-0.05,0.153-0.087,0.307-0.111,0.467l-0.068,0.446c-0.021,0.154-0.028,0.306-0.019,0.457c0.009,0.157,0.033,0.306,0.072,0.443
		c0.041,0.147,0.099,0.286,0.172,0.407c0.077,0.132,0.175,0.25,0.292,0.349c0.114,0.097,0.248,0.175,0.4,0.234
		c0.153,0.057,0.318,0.087,0.507,0.089c0.006,0,0.014,0,0.02,0c0.115,0,0.239-0.009,0.365-0.024
		c0.139-0.016,0.275-0.046,0.406-0.087c0.135-0.041,0.264-0.099,0.392-0.177c0.132-0.08,0.247-0.183,0.341-0.305
		c0.027-0.035,0.045-0.077,0.053-0.122l0.212-1.296c0.013-0.08-0.01-0.161-0.062-0.222C26.36,36.259,26.284,36.223,26.203,36.223z"
		/>
	<path style="fill:#00555F;" d="M30.25,34.405c-0.053-0.062-0.129-0.098-0.211-0.098h-0.302c-0.133,0-0.248,0.097-0.271,0.228
		l-0.397,2.279l-1.124-2.35c-0.046-0.096-0.142-0.157-0.248-0.157H27.4c-0.133,0-0.248,0.097-0.271,0.228l-0.634,3.645
		c-0.014,0.081,0.008,0.162,0.06,0.225c0.053,0.062,0.129,0.098,0.211,0.098h0.308c0.133,0,0.248-0.097,0.271-0.228l0.395-2.276
		l1.122,2.347c0.046,0.096,0.142,0.157,0.248,0.157h0.297c0.134,0,0.248-0.097,0.271-0.228l0.631-3.645
		C30.324,34.549,30.301,34.468,30.25,34.405z"/>
	<path style="fill:#00555F;" d="M33.805,34.405c-0.053-0.062-0.129-0.098-0.211-0.098h-0.301c-0.133,0-0.248,0.097-0.271,0.228
		l-0.396,2.28l-1.125-2.351c-0.046-0.096-0.142-0.157-0.248-0.157h-0.295c-0.133,0-0.248,0.097-0.271,0.228l-0.634,3.645
		c-0.014,0.081,0.008,0.162,0.06,0.225c0.053,0.062,0.129,0.098,0.211,0.098h0.308c0.134,0,0.248-0.097,0.271-0.228l0.394-2.276
		l1.123,2.347c0.046,0.096,0.142,0.157,0.248,0.157h0.295c0.134,0,0.248-0.097,0.271-0.228l0.631-3.645
		C33.88,34.549,33.857,34.468,33.805,34.405z"/>
</g>
</svg>
