<?xml version="1.0" encoding="iso-8859-1"?>
<!-- Generator: Adobe Illustrator 22.0.1, SVG Export Plug-In . SVG Version: 6.00 Build 0)  -->
<svg version="1.1" id="Layer_1" xmlns="http://www.w3.org/2000/svg" xmlns:xlink="http://www.w3.org/1999/xlink" x="0px" y="0px"
	 viewBox="0 0 48 48" style="enable-background:new 0 0 48 48;" xml:space="preserve">
<g>
	<circle style="opacity:0.2;fill:#00CCFF;enable-background:new    ;" cx="24" cy="24" r="24"/>
</g>
<g>
	<g>
		<rect x="7.453" y="12.602" style="fill:#E5E5E5;" width="33.496" height="29.839"/>
		<path style="fill:#E5E5E5;" d="M35.845,11.684v0.288l-6.467,4.937l-2.951-4.828l6.962-3.63c0.336-0.223,0.434-0.688,0.22-1.038
			c-0.214-0.35-0.659-0.453-0.995-0.23l-7.393,3.916h-2.458l-7.392-3.916c-0.336-0.223-0.781-0.12-0.995,0.23
			c-0.214,0.35-0.115,0.815,0.22,1.038l6.962,3.629l-2.951,4.828l-6.467-4.937v-0.288V7.817c0-1.244,0.97-2.256,2.163-2.256h19.38
			c1.193,0,2.163,1.012,2.163,2.256V11.684z"/>
		<path style="fill:#C1C1C1;" d="M37.828,40.826L7.945,40.822v1.509c0,0.415,0.324,0.753,0.722,0.753h30.651
			c0.398,0,0.722-0.338,0.722-0.753V40.01C39.576,40.47,38.885,40.826,37.828,40.826z"/>
		<path style="fill:#FFFFFF;" d="M8.734,43.083H8.601c-0.361,0-0.656-0.397-0.656-0.882V13.007c0-0.485,0.295-0.882,0.656-0.882
			h0.131c0.361,0,0.656,0.397,0.656,0.882v29.196C9.39,42.687,9.094,43.083,8.734,43.083z"/>
		<polygon style="fill:#30B8BF;" points="28.269,34.795 25.36,21.898 22.625,21.898 19.716,34.795 		"/>
		<polygon style="fill:#4AE5E1;" points="22.625,21.898 19.716,34.795 21.154,34.795 24.063,21.898 		"/>
		<polygon style="fill:#30B8BF;" points="25.487,20.469 22.498,20.469 20.526,16.566 22.948,12.602 25.037,12.602 27.46,16.566 		
			"/>
		<polygon style="fill:#C1C1C1;" points="16.568,7.817 22.763,11.098 25.222,11.098 31.417,7.817 		"/>
		<polygon style="fill:#4AE5E1;" points="20.526,16.566 22.498,20.469 24.096,20.469 21.4,15.135 		"/>
	</g>
	<path style="fill:#00555F;" d="M31.417,24c0-0.419,0.316-0.758,0.708-0.758h5.849c0.391,0,0.708,0.339,0.708,0.758
		s-0.316,0.758-0.708,0.758h-5.849C31.734,24.758,31.417,24.418,31.417,24z"/>
	<g>
		<g>
			<polygon style="fill:#E5E5E5;" points="40.87,27.306 40.87,14.671 46.188,20.988 			"/>
		</g>
		<path style="fill:#00555F;" d="M47.198,19.978l-6.121-7.124l-1.011,1.01l6.122,7.124l-6.086,7.075l1.011,1.01l6.086-7.075
			C47.756,21.441,47.756,20.536,47.198,19.978z"/>
	</g>
	<g>
		<g>
			<polygon style="fill:#E5E5E5;" points="1.812,20.988 7.13,14.671 7.13,27.306 			"/>
			<g>
				<polygon style="fill:#E5E5E5;" points="1.812,20.988 7.13,14.671 7.13,27.306 				"/>
			</g>
		</g>
		<polygon style="fill:#C1C1C1;" points="5.701,16.368 5.701,25.608 7.13,27.306 7.13,14.671 		"/>
		<path style="fill:#00555F;" d="M0.802,19.978l6.121-7.124l1.011,1.01l-6.122,7.124l6.086,7.075l-1.011,1.01l-6.086-7.075
			C0.244,21.441,0.244,20.536,0.802,19.978z"/>
	</g>
</g>
<path style="fill:#00555F;" d="M39.318,11.684h-2.031V7.817c0-2.073-1.617-3.759-3.605-3.759h-19.38
	c-1.988,0-3.604,1.686-3.604,3.759v3.867H8.667c-1.192,0-2.162,1.012-2.162,2.255v27.749c0,1.243,0.97,2.255,2.162,2.255h2.673
	h3.034h0.093c0.432,0,0.783-0.336,0.783-0.751s-0.35-0.751-0.783-0.751h-0.093v-0.001H8.667c-0.398,0-0.722-0.338-0.722-0.753
	V13.939c0-0.415,0.324-0.753,0.722-0.753h2.618l7.154,5.394c0.336,0.223,0.781,0.12,0.995-0.23l0.347-0.567l1.549,3.487
	l-3.044,13.642c-0.057,0.39,0.2,0.755,0.574,0.814c0.035,0.005,0.07,0.008,0.104,0.008c0.333,0,0.625-0.254,0.677-0.607l2.984-13.23
	h2.734l2.984,13.23c0.052,0.354,0.344,0.607,0.677,0.607c0.034,0,0.069-0.003,0.104-0.008c0.374-0.06,0.631-0.424,0.574-0.814
	l-3.044-13.642l1.549-3.487l0.346,0.567c0.138,0.225,0.371,0.348,0.609,0.348c0.133,0,0.267-0.038,0.387-0.118l7.155-5.394h2.618
	c0.398,0,0.722,0.338,0.722,0.753v6.045c0,0.415,0.322,0.751,0.72,0.751c0.398,0,0.72-0.336,0.72-0.751v-6.045
	C41.48,12.695,40.51,11.684,39.318,11.684z M25.487,20.469h-2.99l-1.972-3.903l2.423-3.964h2.089l2.423,3.964L25.487,20.469z
	 M35.845,11.684v0.288l-6.467,4.937l-2.951-4.828l6.962-3.63c0.336-0.223,0.434-0.688,0.22-1.038
	c-0.214-0.35-0.659-0.453-0.995-0.23l-7.393,3.916h-2.458l-7.392-3.916c-0.336-0.223-0.781-0.12-0.995,0.23
	c-0.214,0.35-0.115,0.815,0.22,1.038l6.962,3.629l-2.951,4.828l-6.466-4.937v-0.288V7.817c0-1.244,0.97-2.256,2.163-2.256h19.38
	c1.193,0,2.163,1.012,2.163,2.256V11.684z"/>
<path style="fill:#00555F;" d="M40.76,23.242c-0.398,0-0.72,0.336-0.72,0.751v17.695c0,0.415-0.324,0.753-0.722,0.753H19.716v0.001
	h-0.684c-0.432,0-0.783,0.336-0.783,0.751s0.35,0.751,0.783,0.751h0.684h3.635h15.967c1.192,0,2.162-1.012,2.162-2.255V23.993
	C41.48,23.578,41.158,23.242,40.76,23.242z"/>
</svg>
