<?xml version="1.0" encoding="utf-8"?>
<!-- Generator: Adobe Illustrator 22.0.1, SVG Export Plug-In . SVG Version: 6.00 Build 0)  -->
<svg version="1.1" id="Layer_1" xmlns="http://www.w3.org/2000/svg" xmlns:xlink="http://www.w3.org/1999/xlink" x="0px" y="0px"
	 viewBox="0 0 48 48" style="enable-background:new 0 0 48 48;" xml:space="preserve">
<style type="text/css">
	.st0{opacity:0.2;fill:#00CCFF;enable-background:new    ;}
	.st1{fill:#C1C1C1;}
	.st2{fill:#30B8BF;}
	.st3{fill:#E5E5E5;}
	.st4{fill:#FFFFFF;}
	.st5{fill:#00555F;}
</style>
<g>
	<circle class="st0" cx="24" cy="24" r="24"/>
</g>
<path class="st1" d="M32.8,8.5L32.8,8.5C35.2,8.9,37,11,37,13.4c0,2.7-2.2,4.9-4.9,4.9h-0.9l0.1-0.1c0.2-0.3,0.4-0.7,0.6-1.1l0,0
	h0.2c2,0,3.7-1.7,3.7-3.7c0-1.8-1.3-3.3-3-3.6l0,0V8.5z"/>
<path class="st1" d="M24.9,21.9c-0.6,0.1-1.3,0.1-1.9,0l-0.1,0v2.6h2L24.9,21.9L24.9,21.9z"/>
<rect x="15.3" y="3" class="st2" width="17.3" height="2.4"/>
<path class="st3" d="M16.7,18.1c-0.2-0.3-0.4-0.7-0.6-1.1l0,0h-0.2c-2,0-3.7-1.7-3.7-3.7c0-1.8,1.3-3.3,3-3.6l0,0V8.5l-0.1,0
	c-0.6,0.1-1.3,0.3-1.8,0.7c-0.2,0.1-0.4,0.1-0.5,0.1c-0.2,0-0.3-0.2-0.4-0.3l-1.1,1.2c0.2,0.1,0.3,0.2,0.4,0.4c0.1,0.2,0,0.4,0,0.5
	c-0.3,0.7-0.5,1.4-0.5,2.2c0,2.7,2.2,4.9,4.9,4.9L16.7,18.1L16.7,18.1z"/>
<path class="st3" d="M24,20.5c-4.1,0-7.4-3.3-7.4-7.4V6.8h14.7v6.4C31.4,17.2,28.1,20.5,24,20.5z"/>
<path class="st4" d="M17.9,13.2V6.8h-1.3v6.4c0,4.1,3.3,7.4,7.4,7.4c0.2,0,0.4,0,0.7,0C20.9,20.2,17.9,17,17.9,13.2z"/>
<g>
	<path class="st3" d="M45.4,28.4v-2.6c0-0.4-0.3-0.7-0.7-0.7H3.2c-0.4,0-0.7,0.3-0.7,0.7v18.4c0,0.4,0.3,0.6,0.6,0.6h41.6
		c0.4,0,0.6-0.3,0.6-0.6V33c0-0.4,0.3-0.8,0.8-0.8v-3C45.8,29.2,45.4,28.9,45.4,28.4z"/>
	<g>
		<path class="st1" d="M44.8,43.9H3.2c-0.4,0-0.6-0.4-0.6-1v1.8c0,0.5,0.3,1,0.6,1h41.6c0.4,0,0.6-0.4,0.6-1v-1.8
			C45.4,43.4,45.1,43.9,44.8,43.9z"/>
	</g>
	<path class="st4" d="M4.3,44.3V25.2H4H3.5H3.2c-0.4,0-0.7,0.3-0.7,0.7v18.4c0,0.4,0.3,0.6,0.6,0.6h0.3h1.2H5
		C4.6,45,4.3,44.7,4.3,44.3z"/>
	<g>
		<path class="st5" d="M14.9,30.1c-0.2-0.5-0.5-0.7-1.1-0.7c-0.5,0-0.9,0.2-1,0.7l-3.9,9.8c0,0.1,0,0.2,0,0.3c0,0.3,0.2,0.6,0.5,0.6
			c0.1,0,0.2,0,0.3,0c0.3,0,0.5-0.2,0.6-0.4l1.1-2.9h4.9l1.1,2.9c0.1,0.3,0.3,0.4,0.6,0.4c0.1,0,0.2,0,0.3,0
			c0.3-0.1,0.6-0.3,0.6-0.6c0-0.1,0-0.2-0.1-0.3L14.9,30.1z M15.8,36.2h-4l1.6-4.1c0.1-0.4,0.3-0.8,0.4-1.2c0.1,0.4,0.2,0.8,0.4,1.2
			L15.8,36.2z"/>
		<path class="st5" d="M28.2,37c-0.1,0-0.2,0-0.3,0c-0.3,0-0.6,0.2-0.7,0.5c-0.5,1.4-1.4,2.1-2.9,2.1c-2.1,0-3.5-1.8-3.5-4.5
			c0-2.7,1.4-4.5,3.5-4.5c1.7,0,2.4,1,2.7,1.8c0.1,0.3,0.3,0.4,0.6,0.4c0.1,0,0.3,0,0.4-0.1c0.2-0.1,0.5-0.3,0.5-0.6
			c0-0.1,0-0.2-0.1-0.3c-0.7-1.7-2.2-2.6-4.2-2.6c-3,0-5,2.3-5,5.8c0,1.8,0.5,3.2,1.4,4.3c0.9,1,2.2,1.6,3.7,1.6
			c2.8,0,3.9-1.9,4.3-3.1c0-0.1,0-0.2,0-0.3C28.7,37.3,28.5,37.1,28.2,37z"/>
		<path class="st5" d="M37.9,34.9h-2.3c-0.4,0-0.6,0.3-0.6,0.7c0,0.4,0.2,0.6,0.6,0.6h1.9c0.3,0,0.3,0.1,0.3,0.3l0,0.4
			c0,1.6-1.2,2.7-2.9,2.7c-2.2,0-3.6-1.7-3.6-4.5c0-2.8,1.3-4.5,3.5-4.5c1.3,0,2.1,0.5,2.6,1.7c0.1,0.3,0.3,0.4,0.6,0.4
			c0.1,0,0.3,0,0.4-0.1c0.2-0.1,0.5-0.3,0.5-0.6c0-0.1,0-0.2-0.1-0.3c-0.4-0.9-1.5-2.4-4.1-2.4c-1.5,0-2.8,0.6-3.7,1.7
			c-0.9,1-1.3,2.5-1.3,4.2c0,1.7,0.5,3.2,1.3,4.2c0.9,1.1,2.2,1.6,3.7,1.6c1,0,2-0.4,2.6-1c0.1-0.1,0.2-0.2,0.3-0.4
			c0,0.1,0,0.3,0,0.4v0.4c0,0.4,0.3,0.6,0.7,0.6c0.4,0,0.6-0.2,0.6-0.7v-4C39.1,35.3,38.8,34.9,37.9,34.9z"/>
	</g>
	<path class="st5" d="M28.2,12.3L28.2,12.3c-0.1-0.3-0.4-0.5-0.7-0.6l-1.9-0.3l-0.8-1.7c-0.1-0.3-0.4-0.5-0.8-0.5s-0.6,0.2-0.8,0.5
		l-0.8,1.7l-1.9,0.3c-0.3,0-0.6,0.3-0.7,0.6c-0.1,0.3,0,0.6,0.2,0.9l1.4,1.3l-0.3,1.9c-0.1,0.3,0.1,0.6,0.3,0.8
		c0.3,0.2,0.6,0.2,0.9,0.1l1.7-0.9l1.7,0.9c0.1,0.1,0.3,0.1,0.4,0.1c0.2,0,0.4-0.1,0.5-0.2c0.3-0.2,0.4-0.5,0.3-0.8l-0.3-1.9
		l1.4-1.3C28.2,13,28.3,12.7,28.2,12.3z"/>
	<g>
		<path class="st2" d="M25.8,13.9c-0.2,0.2-0.2,0.4-0.2,0.6l0.3,1.7l-1.5-0.8c-0.1-0.1-0.2-0.1-0.3-0.1s-0.2,0-0.3,0.1l-1.5,0.8
			l0.3-1.7c0-0.2,0-0.5-0.2-0.6L21,12.7l1.7-0.2c0.2,0,0.4-0.2,0.5-0.4l0.8-1.5l0.8,1.5c0.1,0.2,0.3,0.4,0.5,0.4l1.7,0.2L25.8,13.9z
			"/>
	</g>
	<g>
		<path class="st5" d="M46.2,32.2c-0.4,0-0.8,0.3-0.8,0.8v11.3c0,0.4-0.3,0.6-0.6,0.6H23.2v0h-4.8c-0.4,0-0.8,0.3-0.8,0.8
			c0,0.4,0.3,0.8,0.8,0.8h4.8v0h22.7c0.6,0,1.1-0.5,1.1-1.1V33C47,32.6,46.6,32.2,46.2,32.2z"/>
		<path class="st5" d="M45.1,23.7H26.5H25h-1.9h-1.5H2.9c-1,0-1.9,0.8-1.9,1.9v19.9c0,0.6,0.5,1.1,1.1,1.1l11.7,0
			c0.4,0,0.8-0.3,0.8-0.8S14.2,45,13.8,45L3.2,45c-0.4,0-0.6-0.3-0.6-0.6V25.9c0-0.4,0.3-0.7,0.7-0.7h41.5c0.4,0,0.7,0.3,0.7,0.7
			v2.6c0,0.4,0.3,0.8,0.8,0.8s0.8-0.3,0.8-0.8v-2.9C47,24.5,46.1,23.7,45.1,23.7z"/>
	</g>
</g>
<path class="st5" d="M30,19.6h2.2c3.5,0,6.3-2.8,6.3-6.3c0-3.2-2.4-5.9-5.6-6.3l0,0V6.8h0.3c0.6,0,1-0.5,1-1V2.6c0-0.6-0.5-1-1-1
	H14.9c-0.6,0-1,0.5-1,1v3.2c0,0.6,0.5,1,1,1h0.3v0.3l0,0c-0.9,0.1-1.8,0.4-2.6,0.9c-0.2,0.1-0.3,0.3-0.3,0.4c0,0.2,0,0.4,0.1,0.5
	c0.1,0.2,0.3,0.3,0.4,0.3c0.2,0,0.4,0,0.5-0.1c0.6-0.3,1.2-0.6,1.8-0.7l0.1,0v1.2l0,0c-1.7,0.3-3,1.9-3,3.6c0,2,1.7,3.7,3.7,3.7h0.2
	l0,0c0.2,0.4,0.4,0.7,0.6,1.1l0.1,0.1h-0.9c-2.7,0-4.9-2.2-4.9-4.9c0-0.8,0.2-1.5,0.5-2.2c0.1-0.2,0.1-0.4,0-0.5
	c-0.1-0.2-0.2-0.3-0.4-0.4c-0.2-0.1-0.4-0.1-0.5,0c-0.2,0.1-0.3,0.2-0.4,0.4c-0.4,0.9-0.7,1.8-0.7,2.8c0,3.5,2.8,6.3,6.3,6.3H18l0,0
	c1,0.9,2.2,1.6,3.5,2l0,0v2.9H23v-2.6l0.1,0c0.6,0.1,1.3,0.1,1.9,0l0.1,0v2.6h1.4v-2.9l0,0C27.7,21.2,29,20.6,30,19.6L30,19.6z
	 M32.8,8.5L32.8,8.5C35.2,8.9,37,11,37,13.4c0,2.7-2.2,4.9-4.9,4.9h-0.9l0.1-0.1c0.2-0.3,0.4-0.7,0.6-1.1l0,0h0.2
	c2,0,3.7-1.7,3.7-3.7c0-1.8-1.3-3.3-3-3.6l0,0V8.5z M32.8,11.2L32.8,11.2c1,0.3,1.6,1.2,1.6,2.2c0,1.1-0.8,2-1.8,2.2l-0.1,0l0-0.1
	c0.2-0.8,0.3-1.6,0.3-2.3V11.2z M15.5,15.6c-1.1-0.2-1.9-1.1-1.9-2.2c0-1,0.6-1.8,1.5-2.2l0.1,0v2C15.2,14,15.3,14.8,15.5,15.6
	L15.5,15.6L15.5,15.6z M15.3,5.4V3h17.3v2.4H15.3z M24,20.5c-4.1,0-7.4-3.3-7.4-7.4V6.8h14.7v6.4C31.4,17.2,28.1,20.5,24,20.5z"/>
</svg>
