<?xml version="1.0" encoding="utf-8"?>
<!-- Generator: Adobe Illustrator 22.0.1, SVG Export Plug-In . SVG Version: 6.00 Build 0)  -->
<svg version="1.1" id="Layer_1" xmlns="http://www.w3.org/2000/svg" xmlns:xlink="http://www.w3.org/1999/xlink" x="0px" y="0px"
	 viewBox="0 0 48 48" style="enable-background:new 0 0 48 48;" xml:space="preserve">
<style type="text/css">
	.st0{opacity:0.2;fill:#00CCFF;enable-background:new    ;}
	.st1{fill:#C1C1C1;}
	.st2{fill:#9B9B9B;}
	.st3{fill:#E5E5E5;}
	.st4{fill:#FFFFFF;}
	.st5{fill:none;stroke:#00555F;stroke-width:1.52;stroke-linecap:round;stroke-linejoin:round;stroke-miterlimit:10;}
	.st6{fill:#00555F;}
	.st7{fill:#30B8BF;}
</style>
<g>
	<circle class="st0" cx="24" cy="24" r="24"/>
</g>
<g>
	<g>
		<g>
			<path class="st1" d="M42.5,17.4c1,0,1.4-1.3,0.6-1.8L25.2,3.3C24.5,3,23.7,3,23,3.3L5.1,15.5c-0.8,0.6-0.4,1.8,0.6,1.8H42.5z"/>
		</g>
		<g>
			<path class="st2" d="M43.1,15.6c-0.2,0.1-0.4,0.2-0.6,0.2H5.7c-0.3,0-0.5-0.1-0.6-0.2c-0.7,0.6-0.3,1.8,0.6,1.8h36.8
				C43.4,17.4,43.8,16.2,43.1,15.6z"/>
		</g>
		<path class="st3" d="M45.7,40.7h-1.5v-3.5c0-0.4-0.3-0.7-0.7-0.7h-2.7V17.4H7.3v19.1H4.6c-0.4,0-0.7,0.3-0.7,0.7v3.5H2.3
			c-0.4,0-0.7,0.3-0.7,0.7v3.5h44.8v-3.5C46.4,41,46.1,40.7,45.7,40.7z"/>
		<g>
			<path class="st4" d="M7.3,36.5V17.4h1.9v19.1H7.3z"/>
		</g>
		<g>
			<rect x="1.6" y="43.4" class="st1" width="44.8" height="1.6"/>
		</g>
		<g>
			<path class="st4" d="M24,8.4c-1.6,0-3,1.4-3,3c0,1.7,1.3,3,3,3c1.6,0,3-1.4,3-3C27,9.8,25.6,8.4,24,8.4z"/>
		</g>
		<g>
			<g>
				<path class="st5" d="M3.9,40.7"/>
			</g>
			<path class="st6" d="M45.7,40l-0.8,0v-2.7c0-0.8-0.7-1.5-1.5-1.5h-1.9V18.1h0.9c0.8,0,1.4-0.5,1.7-1.2c0.2-0.7,0-1.5-0.7-2
				L25.6,2.7c0,0-0.1-0.1-0.1-0.1c-0.9-0.4-1.9-0.4-2.8,0c0,0-0.1,0-0.1,0.1L4.7,14.9c-0.6,0.4-0.9,1.2-0.7,2
				c0.2,0.8,0.9,1.2,1.7,1.2h0.9v7.7c0,0.4,0.3,0.8,0.8,0.8S8,26.3,8,25.9v-7.7h6.9v17.6H8v-5.2c0-0.4-0.3-0.8-0.8-0.8
				s-0.8,0.3-0.8,0.8v5.2H4.6c-0.8,0-1.5,0.7-1.5,1.5V40l-0.8,0c-0.8,0-1.5,0.7-1.5,1.5v3.5c0,0.4,0.3,0.8,0.8,0.8h13
				c0.4,0,0.8-0.3,0.8-0.8s-0.3-0.8-0.8-0.8H2.4l0-2.7l1.6,0h40.3c0,0,0,0,0,0l1.5,0v2.8H19.1c-0.4,0-0.8,0.3-0.8,0.8
				s0.3,0.8,0.8,0.8h27.3c0.4,0,0.8-0.3,0.8-0.8v-3.5C47.2,40.6,46.5,40,45.7,40z M40,35.7h-6.9V18.1H40V35.7z M31.7,18.1v17.6h-6.9
				V18.1H31.7z M7.3,16.6H5.7c-0.1,0-0.2-0.1-0.2-0.2c0-0.1,0-0.2,0.1-0.3L23.4,4c0.5-0.2,1-0.2,1.4,0l17.8,12.2
				c0.1,0.1,0.1,0.2,0.1,0.3c0,0.1-0.1,0.2-0.2,0.2h-1.7H7.3z M16.4,18.1h6.9v17.6h-6.9V18.1z M43.4,37.2v3.1H4.7l-0.1-3L43.4,37.2z
				"/>
			<g>
				<path class="st6" d="M24,15.1c-2,0-3.6-1.6-3.6-3.7S22,7.8,24,7.8h0c2,0,3.6,1.6,3.6,3.7C27.6,13.5,26,15.1,24,15.1z M24,9.1
					c-1.3,0-2.3,1.1-2.3,2.4s1,2.4,2.3,2.4c1.3,0,2.3-1.1,2.3-2.4C26.3,10.2,25.3,9.1,24,9.1z"/>
			</g>
		</g>
	</g>
</g>
<g>
	<g>
		<g>
			<path class="st7" d="M30.2,40.4l16.6-16.6c0.4-0.4,0.4-1.1,0-1.5c-0.4-0.4-1.1-0.5-1.5-0.1L26.9,36.9"/>
		</g>
		<g>
			<path class="st1" d="M32.7,35.4c-0.6-0.7-1.4-1.1-2.3-1.3l-3.5,2.8l3.3,3.5l3.2-3.2C33.3,36.5,33.1,35.9,32.7,35.4z"/>
		</g>
	</g>
	<path class="st6" d="M47.4,21.8c-0.6-0.7-1.7-0.8-2.5-0.2L26.5,36.4c-0.1,0.1-0.1,0.1-0.2,0.2c0,0,0,0,0,0.1c0,0.1,0,0.1-0.1,0.2
		c0,0,0,0,0,0c0,0,0,0.1,0,0.1c0,0.1,0,0.1,0,0.2c0,0,0,0.1,0.1,0.1c0,0,0,0.1,0.1,0.1c0,0,0,0,0,0c0,0,0,0,0,0l3.3,3.5c0,0,0,0,0,0
		c0,0,0,0,0,0c0,0,0.1,0.1,0.1,0.1c0,0,0.1,0,0.1,0.1c0.1,0,0.1,0,0.2,0c0,0,0.1,0,0.1,0c0,0,0,0,0,0c0.1,0,0.2,0,0.3-0.1
		c0.1,0,0.2-0.1,0.2-0.2l16.6-16.6C48,23.6,48.1,22.5,47.4,21.8z M30.6,34.9c0.6,0.2,1.1,0.5,1.5,1c0,0,0,0,0,0
		c0.3,0.3,0.4,0.7,0.6,1.1l-0.5,0.5l-2,2L28,37L30.6,34.9z M46.4,23.2L33.8,35.8c-0.2-0.3-0.3-0.6-0.6-0.9c-0.4-0.5-0.8-0.8-1.4-1.1
		l14-11.2c0.2-0.1,0.4-0.1,0.6,0C46.5,22.8,46.5,23.1,46.4,23.2z"/>
	<g>
		<g>
			<path class="st4" d="M24,47.1c-1.6-1.4-2.6-3.4-2.4-5.4c0.2-2.1,1.6-3.9,3.4-5c0.1,0,0.3-0.2,0.3-0.2c0.9-0.5,1.8-0.6,2.6-0.5
				c0.1,0,0.2,0,0.3,0.1c1,0.3,1.8,0.9,2.4,1.7c1.2,1.5,0.9,3.3-0.7,4.5c-0.6,0.4-1.2,0.7-1.9,0.8C25.7,43.5,24,45.1,24,47.1
				C24,47.1,24,47.1,24,47.1z"/>
		</g>
		<g>
			<path class="st6" d="M24,47.8c-0.2,0-0.3-0.1-0.5-0.2c-1.9-1.6-2.9-3.9-2.6-6c0.2-2.2,1.6-4.2,3.7-5.5c0.1,0,0.3-0.2,0.4-0.2
				c1-0.6,2.1-0.7,3.1-0.5c0.1,0,0.2,0,0.3,0.1c1.1,0.3,2,1,2.8,1.9c0.7,0.9,1,1.9,0.8,2.9c-0.1,1-0.7,1.9-1.7,2.6
				c-0.7,0.5-1.4,0.8-2.2,0.9c-2,0.4-3.4,1.7-3.4,3.3c0,0.3-0.2,0.5-0.4,0.6C24.2,47.8,24.1,47.8,24,47.8z M27.2,36.7
				c-0.5,0-1.1,0.1-1.6,0.4c-0.1,0-0.3,0.1-0.3,0.2c-1.7,1.1-2.9,2.7-3,4.4c-0.1,1.3,0.3,2.7,1.3,3.9c0.6-1.6,2.2-2.9,4.3-3.2
				c0.6-0.1,1.2-0.4,1.6-0.7c0.6-0.5,1-1,1.1-1.7c0.1-0.6-0.1-1.3-0.6-1.8c-0.5-0.7-1.2-1.2-2-1.4c-0.1,0-0.2,0-0.2-0.1
				C27.6,36.7,27.4,36.7,27.2,36.7z"/>
		</g>
	</g>
</g>
</svg>
