<?xml version="1.0" encoding="iso-8859-1"?>
<!-- Generator: Adobe Illustrator 22.0.1, SVG Export Plug-In . SVG Version: 6.00 Build 0)  -->
<svg version="1.1" id="Layer_1" xmlns="http://www.w3.org/2000/svg" xmlns:xlink="http://www.w3.org/1999/xlink" x="0px" y="0px"
	 viewBox="0 0 48 48" style="enable-background:new 0 0 48 48;" xml:space="preserve">
<g>
	<circle style="opacity:0.2;fill:#00CCFF;enable-background:new    ;" cx="24" cy="24" r="24"/>
</g>
<g>
	<g>
		<path style="fill:#00555F;" d="M24,13.938c-2.675,0-4.852-2.176-4.852-4.852c0-2.675,2.176-4.851,4.852-4.851
			c2.675,0,4.852,2.176,4.852,4.851C28.852,11.761,26.675,13.938,24,13.938z M24,5.735c-1.848,0-3.352,1.503-3.352,3.351
			s1.503,3.352,3.352,3.352c1.848,0,3.352-1.503,3.352-3.352C27.352,7.238,25.848,5.735,24,5.735z"/>
		<path style="fill:#30B8BF;" d="M24,5.735c-1.848,0-3.352,1.503-3.352,3.351s1.503,3.352,3.352,3.352
			c1.848,0,3.352-1.503,3.352-3.352C27.352,7.238,25.848,5.735,24,5.735z"/>
	</g>
	<g>
		<path style="fill:#00555F;" d="M14.281,17.671c-2.14,0-3.881-1.741-3.881-3.881s1.741-3.881,3.881-3.881s3.881,1.741,3.881,3.881
			S16.421,17.671,14.281,17.671z M14.281,11.409c-1.313,0-2.381,1.068-2.381,2.381s1.068,2.381,2.381,2.381s2.381-1.068,2.381-2.381
			S15.594,11.409,14.281,11.409z"/>
		<path style="fill:#C1C1C1;" d="M14.281,11.409c-1.313,0-2.381,1.068-2.381,2.381s1.068,2.381,2.381,2.381s2.381-1.068,2.381-2.381
			S15.594,11.409,14.281,11.409z"/>
	</g>
	<g>
		<path style="fill:#00555F;" d="M33.927,17.679c-2.14,0-3.881-1.741-3.881-3.881s1.741-3.881,3.881-3.881s3.881,1.741,3.881,3.881
			S36.066,17.679,33.927,17.679z M33.927,11.417c-1.312,0-2.381,1.068-2.381,2.381s1.068,2.381,2.381,2.381s2.381-1.068,2.381-2.381
			S35.239,11.417,33.927,11.417z"/>
	</g>
	<path style="fill:#C1C1C1;" d="M33.927,11.417c-1.312,0-2.381,1.068-2.381,2.381s1.068,2.381,2.381,2.381s2.381-1.068,2.381-2.381
		S35.239,11.417,33.927,11.417z"/>
	<g>
		<g>
			<g>
				<path style="fill:#00555F;" d="M34.159,19.415c2.127,0,3.904,1.487,4.371,3.473h1.535c-0.489-2.82-2.948-4.973-5.906-4.973
					h-3.043c0.247,0.469,0.435,0.973,0.563,1.5H34.159z"/>
			</g>
			<g>
				<path style="fill:#C1C1C1;" d="M34.159,19.415h-2.48c-0.005-0.02-0.013-0.039-0.018-0.06c0.131,0.51,0.207,1.042,0.207,1.592
					v1.941h6.662C38.063,20.902,36.286,19.415,34.159,19.415z"/>
				<path style="fill:#C1C1C1;" d="M31.449,18.664L31.449,18.664c0.004,0.014,0.008,0.028,0.013,0.042
					C31.457,18.693,31.454,18.678,31.449,18.664z"/>
			</g>
		</g>
		<g>
			<g>
				<path style="fill:#00555F;" d="M9.495,22.888c0.467-1.986,2.244-3.473,4.371-3.473h2.455c0.128-0.527,0.315-1.031,0.563-1.5
					h-3.018c-2.958,0-5.417,2.153-5.906,4.973H9.495z"/>
			</g>
			<g>
				<path style="fill:#C1C1C1;" d="M16.321,19.415h-2.455c-2.127,0-3.904,1.487-4.371,3.473h6.637v-1.941
					c0-0.551,0.076-1.082,0.207-1.592C16.334,19.375,16.326,19.394,16.321,19.415z"/>
				<path style="fill:#C1C1C1;" d="M16.538,18.706c0.005-0.014,0.008-0.028,0.014-0.042h-0.001
					C16.546,18.678,16.543,18.693,16.538,18.706z"/>
			</g>
		</g>
		<g>
			<path style="fill:#2FB8BF;" d="M25.335,15.914h-2.669c-2.775,0-5.033,2.258-5.033,5.033v1.941h12.736v-1.941
				C30.368,18.172,28.11,15.914,25.335,15.914z"/>
			<g>
				<path style="fill:#00555F;" d="M17.632,22.888v-1.941c0-2.775,2.258-5.033,5.033-5.033h2.669c2.775,0,5.033,2.258,5.033,5.033
					v1.941h1.5v-1.941c0-3.603-2.931-6.533-6.533-6.533h-2.669c-3.603,0-6.533,2.931-6.533,6.533v1.941H17.632z"/>
			</g>
		</g>
	</g>
</g>
<g>
	<path style="fill:#E5E5E5;" d="M43.284,41.255H5.46c-0.332,0-0.603-0.271-0.603-0.603V24.99c0-0.327,0.265-0.592,0.592-0.592
		h38.426v16.266C43.875,40.99,43.61,41.255,43.284,41.255z"/>
	<path style="fill:#FFFFFF;" d="M5.822,41.553H5.394c-0.295,0-0.537-0.242-0.537-0.537v-16.38c0-0.295,0.242-0.537,0.537-0.537
		h0.428c0.295,0,0.537,0.242,0.537,0.537v16.38C6.359,41.312,6.117,41.553,5.822,41.553z"/>
	<g>
		<path style="fill:#C1C1C1;" d="M42.551,41.255c0.327,0,0.591-0.265,0.591-0.591V38.03c-0.371,0.752-1.134,1.514-2.649,1.514
			L6.967,39.54c-0.545,0-1.05,0.291-1.352,0.777c0,0-0.208,0.336-0.505,0.817c0.097,0.07,0.21,0.12,0.339,0.12L42.551,41.255
			L42.551,41.255z"/>
	</g>
	<g>
		<path style="fill:#00555F;" d="M43.143,41.255"/>
		<path style="fill:#00555F;" d="M17.959,27.418H30.04c0.417,0,0.755-0.338,0.755-0.755s-0.338-0.755-0.755-0.755H17.959
			c-0.417,0-0.755,0.338-0.755,0.755S17.542,27.418,17.959,27.418L17.959,27.418z"/>
		<path style="fill:#00555F;" d="M26.265,28.929h-4.53c-0.417,0-0.755,0.338-0.755,0.755s0.338,0.755,0.755,0.755h4.53
			c0.417,0,0.755-0.338,0.755-0.755C27.02,29.267,26.682,28.929,26.265,28.929L26.265,28.929z"/>
		<path style="fill:#00555F;" d="M46.408,22.888H1.592c-0.417,0-0.755,0.338-0.755,0.755s0.338,0.755,0.755,0.755h1.164
			c0.327,0,0.591,0.265,0.591,0.592v16.429c0,0.744,0.603,1.347,1.347,1.347h38.612c0.744,0,1.347-0.603,1.347-1.347V28.173
			c0-0.418-0.338-0.755-0.755-0.755c-0.418,0-0.755,0.338-0.755,0.755v12.491c0,0.327-0.265,0.591-0.591,0.591H5.449
			c-0.327,0-0.592-0.265-0.592-0.591V24.99c0-0.327,0.265-0.592,0.592-0.592h40.958c0.417,0,0.755-0.338,0.755-0.755
			S46.825,22.888,46.408,22.888z"/>
	</g>
</g>
</svg>
