<?xml version="1.0" encoding="iso-8859-1"?>
<!-- Generator: Adobe Illustrator 22.0.1, SVG Export Plug-In . SVG Version: 6.00 Build 0)  -->
<svg version="1.1" id="Layer_1" xmlns="http://www.w3.org/2000/svg" xmlns:xlink="http://www.w3.org/1999/xlink" x="0px" y="0px"
	 viewBox="0 0 48 48" style="enable-background:new 0 0 48 48;" xml:space="preserve">
<g>
	<circle style="opacity:0.2;fill:#00CCFF;enable-background:new    ;" cx="24" cy="24" r="24"/>
</g>
<g>
	<path style="fill:#30B8BF;" d="M9.654,4.685c-3.701,0-6.7,3-6.7,6.7s3,6.7,6.7,6.7s6.7-3,6.7-6.7S13.354,4.685,9.654,4.685z
		 M9.654,13.638c-1.244,0-2.252-1.008-2.252-2.252S8.41,9.134,9.654,9.134s2.252,1.008,2.252,2.252S10.898,13.638,9.654,13.638z"/>
	<path style="fill:#00555F;" d="M9.654,18.736c-4.053,0-7.351-3.297-7.351-7.351c0-4.053,3.297-7.35,7.351-7.35
		c4.053,0,7.35,3.297,7.35,7.35S13.707,18.736,9.654,18.736z M9.654,5.335c-3.336,0-6.051,2.714-6.051,6.05s2.714,6.051,6.051,6.051
		c3.336,0,6.05-2.714,6.05-6.051C15.704,8.049,12.99,5.335,9.654,5.335z M9.654,14.288c-1.601,0-2.902-1.302-2.902-2.902
		s1.302-2.902,2.902-2.902s2.902,1.302,2.902,2.902S11.254,14.288,9.654,14.288z M9.654,9.783c-0.884,0-1.603,0.719-1.603,1.602
		c0,0.884,0.719,1.603,1.603,1.603s1.603-0.719,1.603-1.603C11.256,10.502,10.538,9.783,9.654,9.783z"/>
</g>
<g>
	<path style="fill:#30B8BF;" d="M23.175,6.827c-2.953,0-5.347,2.394-5.347,5.347s2.394,5.347,5.347,5.347s5.347-2.394,5.347-5.347
		S26.129,6.827,23.175,6.827z M23.175,13.972c-0.993,0-1.797-0.805-1.797-1.797s0.805-1.797,1.797-1.797s1.797,0.805,1.797,1.797
		S24.168,13.972,23.175,13.972z"/>
	<path style="fill:#00555F;" d="M23.175,18.171c-3.307,0-5.997-2.69-5.997-5.997s2.69-5.997,5.997-5.997s5.998,2.69,5.998,5.997
		S26.482,18.171,23.175,18.171z M23.175,7.477c-2.59,0-4.697,2.107-4.697,4.697s2.107,4.697,4.697,4.697s4.697-2.107,4.697-4.697
		S25.766,7.477,23.175,7.477z M23.175,14.622c-1.35,0-2.447-1.098-2.447-2.447s1.098-2.447,2.447-2.447s2.448,1.098,2.448,2.447
		S24.525,14.622,23.175,14.622z M23.175,11.027c-0.633,0-1.147,0.515-1.147,1.147s0.515,1.147,1.147,1.147s1.148-0.515,1.148-1.147
		S23.808,11.027,23.175,11.027z"/>
</g>
<g>
	<path style="fill:#E5E5E5;" d="M31.429,41.848H2.042c-0.222,0-0.404-0.182-0.404-0.404V18.252c0-0.222,0.182-0.404,0.404-0.404
		h29.387c0.222,0,0.404,0.182,0.404,0.404v23.192C31.833,41.666,31.651,41.848,31.429,41.848z"/>
	<path style="fill:#C1C1C1;" d="M41.423,20.868v13.396c0,0.303-0.323,0.496-0.59,0.353l-3.81-2.049
		c-0.13-0.07-0.211-0.205-0.211-0.353v-9.298c0-0.147,0.081-0.283,0.211-0.353l3.81-2.049
		C41.099,20.372,41.423,20.565,41.423,20.868z"/>
	<path style="fill:#9B9B9B;" d="M46.183,37.238h-3.2c-0.22,0-0.4-0.18-0.4-0.4v-18.59c0-0.22,0.18-0.4,0.4-0.4h3.2
		c0.22,0,0.4,0.18,0.4,0.4v18.59C46.583,37.058,46.403,37.238,46.183,37.238z"/>
	<path style="fill:#E5E5E5;" d="M35.324,22.28v10.571c0,0.742-1.215,1.378-1.738,1.617c-0.106,0.05-0.229,0.041-0.328-0.021
		c-0.097-0.062-0.151-0.164-0.151-0.28V20.963c0-0.115,0.055-0.217,0.151-0.278c0.056-0.036,0.119-0.054,0.183-0.054
		c0.049,0,0.099,0.011,0.145,0.032C34.108,20.901,35.324,21.539,35.324,22.28z"/>
	<path style="fill:#00555F;" d="M46.483,21.701c0.41,0,0.744-0.333,0.744-0.743v-2.152c0-0.886-0.719-1.605-1.605-1.605h-2.594
		c-0.716,0-1.346,0.478-1.542,1.166l-4.907,2.675c-0.46-1.093-2.357-1.916-3.553-2.145c-0.312-1.314-1.509-2.264-2.862-2.264H3.715
		c-1.625,0-2.942,1.317-2.942,2.942V33.25c0,0.41,0.333,0.744,0.744,0.744c0.41,0,0.743-0.334,0.743-0.744V19.575
		c0-0.804,0.651-1.455,1.455-1.455h26.449c0.803,0,1.454,0.651,1.454,1.454v20.36c0,0.803-0.651,1.454-1.454,1.454H3.715
		c-0.803,0-1.455-0.651-1.455-1.455v-2.195c0-0.41-0.333-0.744-0.744-0.744s-0.744,0.334-0.744,0.744v2.195
		c0,1.625,1.317,2.942,2.942,2.942h26.449c1.625,0,2.942-1.317,2.942-2.942v-3.712c1.209-0.261,3.027-1.075,3.473-2.129l4.907,2.674
		c0.196,0.688,0.826,1.166,1.542,1.166h2.594c0.883,0,1.605-0.722,1.605-1.605V24.892c0-0.41-0.334-0.744-0.744-0.744
		s-0.744,0.333-0.744,0.744v11.151c0,0.22-0.18,0.401-0.401,0.401H43.31c-0.22,0-0.401-0.18-0.401-0.401V19.089
		c0-0.221,0.181-0.402,0.402-0.402h2.026c0.221,0,0.401,0.179,0.401,0.401v1.87C45.739,21.368,46.073,21.701,46.483,21.701z
		 M41.423,20.868v13.396c0,0.303-0.323,0.496-0.59,0.353l-3.81-2.049c-0.13-0.07-0.211-0.205-0.211-0.353v-9.298
		c0-0.147,0.081-0.283,0.211-0.353l3.81-2.049C41.099,20.372,41.423,20.565,41.423,20.868z M35.324,22.28v10.571
		c0,0.742-1.215,1.378-1.738,1.617c-0.106,0.05-0.229,0.041-0.328-0.021c-0.097-0.062-0.151-0.164-0.151-0.28V20.963
		c0-0.115,0.055-0.217,0.151-0.278c0.056-0.036,0.119-0.054,0.183-0.054c0.049,0,0.099,0.011,0.145,0.032
		C34.108,20.901,35.324,21.539,35.324,22.28z"/>
	<circle style="fill:#00555F;" cx="21.239" cy="39.079" r="0.96"/>
	<path style="fill:#00555F;" d="M23.168,39.079c0,0.53,0.43,0.96,0.96,0.96c0.53,0,0.96-0.43,0.96-0.96s-0.43-0.96-0.96-0.96
		C23.598,38.12,23.168,38.55,23.168,39.079z"/>
	<g>
		<path style="fill:#00555F;" d="M27.063,24.997c0-1.261-1.026-2.287-2.287-2.287H9.05c-1.261,0-2.286,1.026-2.286,2.287v7.637
			c0,1.261,1.025,2.287,2.286,2.287h15.727c1.261,0,2.287-1.026,2.287-2.287V24.997z M8.25,24.997c0-0.441,0.358-0.799,0.799-0.799
			h15.727c0.44,0,0.799,0.358,0.799,0.799v7.637c0,0.44-0.358,0.799-0.799,0.799H9.05c-0.441,0-0.799-0.358-0.799-0.799
			C8.251,32.634,8.251,24.997,8.25,24.997z"/>
		<path style="fill:#FFFFFF;" d="M8.25,24.997c0-0.441,0.358-0.799,0.799-0.799h15.727c0.44,0,0.799,0.358,0.799,0.799v7.637
			c0,0.44-0.358,0.799-0.799,0.799H9.05c-0.441,0-0.799-0.358-0.799-0.799C8.251,32.634,8.251,24.997,8.25,24.997z"/>
	</g>
	<g>
		<path style="fill:#00555F;" d="M10.608,26.761v4.266h2.407c0.192,0,0.34,0.047,0.442,0.14c0.102,0.093,0.154,0.211,0.154,0.352
			c0,0.143-0.051,0.261-0.152,0.35c-0.101,0.089-0.249,0.134-0.444,0.134h-2.867c-0.258,0-0.444-0.057-0.558-0.172
			c-0.114-0.115-0.17-0.3-0.17-0.556v-4.514c0-0.239,0.054-0.42,0.162-0.54c0.108-0.12,0.25-0.18,0.426-0.18
			c0.178,0,0.324,0.06,0.434,0.178C10.552,26.338,10.608,26.518,10.608,26.761z"/>
		<path style="fill:#00555F;" d="M14.824,27.156c-0.152,0-0.282-0.047-0.39-0.14c-0.108-0.093-0.162-0.225-0.162-0.396
			c0-0.155,0.056-0.282,0.166-0.382c0.11-0.1,0.239-0.15,0.386-0.15c0.141,0,0.267,0.045,0.376,0.136
			c0.11,0.091,0.164,0.223,0.164,0.396c0,0.168-0.054,0.299-0.16,0.394C15.098,27.11,14.971,27.156,14.824,27.156z M15.365,28.284
			v3.155c0,0.219-0.052,0.384-0.156,0.496c-0.104,0.112-0.236,0.168-0.396,0.168c-0.159,0-0.29-0.057-0.39-0.172
			c-0.1-0.115-0.15-0.279-0.15-0.492v-3.123c0-0.216,0.05-0.379,0.15-0.487c0.1-0.109,0.23-0.164,0.39-0.164
			c0.16,0,0.292,0.055,0.396,0.164C15.313,27.937,15.365,28.089,15.365,28.284z"/>
		<path style="fill:#00555F;" d="M17.223,28.344l0.884,2.479l0.952-2.587c0.075-0.208,0.148-0.354,0.219-0.442
			c0.072-0.088,0.181-0.13,0.328-0.13c0.138,0,0.256,0.047,0.353,0.14c0.097,0.093,0.146,0.2,0.146,0.324
			c0,0.047-0.008,0.104-0.026,0.168c-0.018,0.063-0.038,0.123-0.06,0.18c-0.022,0.057-0.049,0.12-0.078,0.192l-1.048,2.6
			c-0.03,0.075-0.068,0.169-0.114,0.284c-0.046,0.115-0.098,0.213-0.156,0.294c-0.057,0.081-0.128,0.145-0.212,0.19
			s-0.186,0.068-0.306,0.068c-0.154,0-0.277-0.035-0.37-0.105c-0.092-0.071-0.16-0.148-0.204-0.232
			c-0.044-0.084-0.118-0.25-0.222-0.498l-1.039-2.571c-0.024-0.064-0.049-0.128-0.074-0.192c-0.025-0.064-0.046-0.129-0.064-0.196
			c-0.018-0.066-0.026-0.124-0.026-0.172c0-0.075,0.022-0.149,0.068-0.222c0.045-0.073,0.108-0.133,0.188-0.18
			c0.08-0.047,0.167-0.07,0.26-0.07c0.181,0,0.306,0.052,0.373,0.156C17.065,27.924,17.14,28.099,17.223,28.344z"/>
		<path style="fill:#00555F;" d="M23.788,30.151h-2.135c0.002,0.248,0.053,0.467,0.15,0.656c0.097,0.189,0.227,0.332,0.388,0.428
			c0.161,0.096,0.34,0.143,0.534,0.143c0.131,0,0.25-0.015,0.358-0.046c0.108-0.031,0.212-0.079,0.314-0.143s0.194-0.135,0.28-0.21
			c0.085-0.075,0.196-0.176,0.332-0.304c0.056-0.047,0.136-0.072,0.239-0.072c0.112,0,0.203,0.031,0.272,0.092
			c0.07,0.061,0.104,0.148,0.104,0.26c0,0.099-0.038,0.214-0.116,0.346c-0.077,0.132-0.194,0.258-0.35,0.38
			c-0.156,0.121-0.352,0.222-0.588,0.302c-0.236,0.08-0.507,0.12-0.813,0.12c-0.702,0-1.246-0.2-1.635-0.6
			c-0.389-0.4-0.583-0.943-0.583-1.628c0-0.323,0.047-0.621,0.143-0.898c0.096-0.276,0.236-0.513,0.42-0.71s0.41-0.349,0.679-0.454
			c0.269-0.104,0.568-0.158,0.896-0.158c0.426,0,0.792,0.09,1.097,0.27c0.305,0.18,0.534,0.413,0.686,0.697
			c0.152,0.285,0.228,0.576,0.228,0.871c0,0.275-0.078,0.453-0.236,0.534C24.293,30.109,24.073,30.151,23.788,30.151z
			 M21.652,29.532h1.979c-0.026-0.372-0.128-0.653-0.302-0.838c-0.174-0.185-0.404-0.277-0.69-0.277
			c-0.272,0-0.496,0.094-0.67,0.282C21.796,28.885,21.69,29.164,21.652,29.532z"/>
	</g>
</g>
<g>
	<rect x="16.354" y="11.679" style="fill:#30B8BF;" width="1.474" height="0.587"/>
	<rect x="15.704" y="11.029" style="fill:#00555F;" width="2.774" height="1.887"/>
</g>
</svg>
