<?xml version="1.0" encoding="utf-8"?>
<!-- Generator: Adobe Illustrator 22.0.1, SVG Export Plug-In . SVG Version: 6.00 Build 0)  -->
<svg version="1.1" id="Layer_1" xmlns="http://www.w3.org/2000/svg" xmlns:xlink="http://www.w3.org/1999/xlink" x="0px" y="0px"
	 viewBox="0 0 48 48" style="enable-background:new 0 0 48 48;" xml:space="preserve">
<style type="text/css">
	.st0{opacity:0.2;fill:#00CCFF;enable-background:new    ;}
	.st1{fill:#FFFFFF;}
	.st2{fill:#00555F;}
	.st3{fill:#E5E5E5;}
	.st4{fill:#C1C1C1;}
	.st5{fill:none;}
	.st6{clip-path:url(#SVGID_2_);}
	.st7{fill:#30B8BF;}
</style>
<g>
	<circle class="st0" cx="24" cy="24" r="24"/>
</g>
<g>
	<g>
		<path class="st1" d="M20.8,23.8c-1.5-1.2-2.4-2-2.4-4.1V14c-0.3,0-0.6,0-0.9,0h-0.1v5.8c0,2,0.9,2.8,2.4,4.1
			c1.2,0.9,2.6,1.4,4.2,1.4c0.2,0,0.3,0,0.5,0C23.1,25.1,21.9,24.6,20.8,23.8z"/>
	</g>
	<path class="st2" d="M37.5,30.2l-8-3.1c-0.4-0.2-0.7-0.6-0.7-1v-0.8c0-0.4-0.3-0.8-0.8-0.8c-0.4,0-0.8,0.3-0.8,0.8V26
		c0,0.7,0.3,1.4,0.8,1.9l0,0l0,0L24,31l0,0L19.9,28l0,0c0.5-0.5,0.8-1.2,0.8-1.9v-0.8c0-0.4-0.3-0.8-0.8-0.8s-0.8,0.3-0.8,0.8V26
		c0,0.5-0.3,0.9-0.7,1l-8,3.1c-3.8,1.5-5.9,4.2-5.9,7.7v5c0,1.9,1.6,3.4,3.6,3.4h4.3c1,0,1.9-0.8,1.9-1.9v-2.7
		c0-3.5-1.6-5.7-3.1-6.6c-0.2-0.1-0.4-0.1-0.6-0.1c-0.2,0-0.4,0.2-0.5,0.3c-0.1,0.2-0.1,0.4-0.1,0.6c0,0.2,0.2,0.4,0.3,0.5
		c1.1,0.7,2.4,2.5,2.4,5.3v2.7c0,0.2-0.2,0.3-0.3,0.3H8.2C7,44.9,6.1,44,6.1,43v-5c0-3.6,2.7-5.4,4.9-6.3l7.4-2.9l5.2,3.9
		c0.1,0.1,0.3,0.2,0.5,0.2c0.2,0,0.3-0.1,0.5-0.2l5.1-3.9l7.4,2.9c2.2,0.9,4.9,2.7,4.9,6.3v5c0,1.1-0.9,1.9-2.1,1.9h-4.6v-3
		c0-2.9,1.2-4.6,2.4-5.3c0.2-0.1,0.3-0.3,0.3-0.5c0-0.2,0-0.4-0.1-0.6c-0.1-0.2-0.3-0.3-0.5-0.3c-0.2,0-0.4,0-0.6,0.1
		c-1.5,0.9-3.1,3.1-3.1,6.6v3H16.8c-0.4,0-0.8,0.3-0.8,0.8c0,0.4,0.3,0.8,0.8,0.8h23c2,0,3.6-1.5,3.6-3.4v-5
		C43.4,34.5,41.3,31.7,37.5,30.2z"/>
	<path class="st3" d="M27.3,26v-0.8h-6.6V26c0,0.7-0.3,1.4-0.8,1.9L24,31l4.1-3.1C27.6,27.5,27.3,26.8,27.3,26z"/>
	<g>
		<path class="st3" d="M30.4,19.9v-0.1c0-0.1,0-0.3,0-0.8c0-0.8,0-2.4,0-5.6c-0.1-0.1-0.5-0.5-1-1.1c-0.3-0.3-0.7-0.7-1.1-1.1
			l-0.1-0.1l-0.1,0.1c-3.1,2-7,3-10.6,2.8h-0.1v5.8c0,2,0.9,2.8,2.4,4.1c1.2,0.9,2.6,1.4,4.2,1.4c0.5,0,1.1-0.1,1.6-0.2
			C28.4,24.3,30.4,22.8,30.4,19.9z"/>
		<path class="st3" d="M32.1,15.1v4.1h0.1c1-0.3,1.7-1,1.7-2c0-1-0.6-1.7-1.7-2H32.1z"/>
		<path class="st4" d="M27.3,9.8c0.3-0.1,0.5-0.2,0.8-0.2c0.6,0,0.9,0.3,1.7,1.2c0.1,0.2,0.3,0.4,0.5,0.6c1.5,1.5,1.5,1.6,1.5,2.2
			v0.1h0.1c0.3,0,0.5,0,0.7,0.1h0.2v-1.6c0-5-4.1-9-9-9c-5,0-9,4.1-9,9v1.6l0.2-0.1c0.2-0.1,0.5-0.2,0.7-0.2l0.1-0.1
			c0.2-0.7,0.8-1.1,1.3-0.9C20.5,12.8,24.4,11.8,27.3,9.8z"/>
		<g>
			<path class="st5" d="M32.1,15.1v4.1h0.1c1-0.3,1.7-1,1.7-2c0-1-0.6-1.7-1.7-2H32.1z"/>
			<path class="st5" d="M27.3,9.8c0.3-0.1,0.5-0.2,0.8-0.2c0.6,0,0.9,0.3,1.7,1.2c0.1,0.2,0.3,0.4,0.5,0.6c1.5,1.5,1.5,1.6,1.5,2.2
				v0.1h0.1c0.3,0,0.5,0,0.7,0.1h0.2v-1.6c0-5-4.1-9-9-9c-5,0-9,4.1-9,9v1.6l0.2-0.1c0.2-0.1,0.5-0.2,0.7-0.2l0.1-0.1
				c0.2-0.7,0.8-1.1,1.3-0.9C20.5,12.8,24.4,11.8,27.3,9.8z"/>
			<path class="st5" d="M30.4,19.9v-0.1c0-0.1,0-0.3,0-0.8c0-0.8,0-2.4,0-5.6c-0.1-0.1-0.5-0.5-1-1.1c-0.3-0.3-0.7-0.7-1.1-1.1
				l-0.1-0.1l-0.1,0.1c-3.1,2-7,3-10.6,2.8h-0.1v5.8c0,2,0.9,2.8,2.4,4.1c1.2,0.9,2.6,1.4,4.2,1.4c0.5,0,1.1-0.1,1.6-0.2
				C28.4,24.3,30.4,22.8,30.4,19.9z"/>
			<path class="st2" d="M18.3,24.5c0.2,0.2,0.5,0.4,0.8,0.6l0.1,0.1l0,0.1c0.5,0.4,1,0.7,1.5,0.9l0-0.1l0.2,0.1c2,0.8,4.4,0.8,6.3,0
				l0.2-0.1l0,0c0.5-0.2,1-0.5,1.4-0.9l0-0.1l0.2-0.1c1.6-1.3,2.7-2.1,2.9-4.3v-0.1h0.1c1.4-0.1,2.6-1,3.1-2.3
				c0.5-1.2,0.2-2.5-0.6-3.5v-2.6c0-5.9-4.8-10.6-10.6-10.6S13.3,6.4,13.3,12.3v2.6c-0.9,1-1.1,2.2-0.6,3.4c0.5,1.3,1.7,2.2,3.1,2.3
				h0.1v0.1C16.2,22.5,17,23.5,18.3,24.5C18.3,24.5,18.3,24.5,18.3,24.5C18.3,24.5,18.3,24.5,18.3,24.5z M33.9,17.1
				c0,1-0.7,1.7-1.7,2h-0.1v-4.1h0.1C33.3,15.4,33.9,16.1,33.9,17.1z M15.9,19.2h-0.1c-0.9-0.2-1.9-0.8-1.9-2.1c0-0.9,0.4-1.8,2-1.9
				l0,0V19.2z M15.8,13.5l-0.1,0.1c-0.2,0-0.5,0.1-0.7,0.2l-0.2,0.1v-1.6c0-5,4.1-9,9-9c5,0,9,4.1,9,9v1.6h-0.2
				c-0.2-0.1-0.4-0.1-0.7-0.1h-0.1v-0.1c0-0.6,0-0.7-1.5-2.2c-0.2-0.2-0.4-0.4-0.5-0.6c-0.8-0.9-1.1-1.2-1.7-1.2
				c-0.3,0-0.5,0.1-0.8,0.2c-2.9,1.9-6.8,2.9-10.1,2.7C16.7,12.4,16.1,12.8,15.8,13.5z M17.4,19.8V14h0.1c3.6,0.2,7.5-0.8,10.6-2.8
				l0.1-0.1l0.1,0.1c0.4,0.4,0.8,0.8,1.1,1.1c0.5,0.6,0.9,1,1,1.1c0,3.1,0,4.8,0,5.6c0,0.5,0,0.7,0,0.8v0.1c0,2.9-2,4.5-4.9,5.2
				c-0.5,0.1-1.1,0.2-1.6,0.2c-1.5,0-2.9-0.5-4.2-1.4C18.3,22.6,17.4,21.8,17.4,19.8z"/>
		</g>
		<path class="st3" d="M37,31.6l-7.4-2.9l-5.1,3.9c-0.1,0.1-0.3,0.2-0.5,0.2c-0.2,0-0.3-0.1-0.5-0.2l-5.2-3.9L11,31.6
			c-2.2,0.9-4.9,2.7-4.9,6.3v5c0,1.1,0.9,1.9,2.1,1.9h4.3c0.2,0,0.3-0.2,0.3-0.3v-2.7c0-2.9-1.2-4.6-2.4-5.3
			c-0.2-0.1-0.3-0.3-0.3-0.5c0-0.2,0-0.4,0.1-0.6c0.1-0.2,0.3-0.3,0.5-0.3c0.2,0,0.4,0,0.6,0.1c1.5,0.9,3.1,3.1,3.1,6.6v2.7
			c0,0.3-0.1,0.5-0.2,0.7c-0.1,0.1-0.1,0.2-0.2,0.4l2.1,0c0-0.4,0.3-0.8,0.8-0.8h16.9v-3c0-3.5,1.6-5.7,3.1-6.6
			c0.2-0.1,0.4-0.1,0.6-0.1c0.2,0,0.4,0.2,0.5,0.3c0.1,0.2,0.1,0.4,0.1,0.6c0,0.2-0.2,0.4-0.3,0.5c-1.1,0.7-2.4,2.5-2.4,5.3v3h4.6
			c1.2,0,2.1-0.9,2.1-1.9v-5C41.9,34.3,39.2,32.5,37,31.6z"/>
		<g>
			<path class="st1" d="M9.4,44.8c-1.2,0-2.1-0.9-2.1-2v-5.3c0-2.7,1.4-4.5,3-5.6c-2.1,1-4.2,2.8-4.2,6v5c0,1.1,0.9,1.9,2.1,1.9h4.3
				c0.1,0,0.1,0,0.2,0H9.4z"/>
		</g>
		<g>
			<path class="st1" d="M20.8,23.8c-1.5-1.2-2.4-2-2.4-4.1V14c-0.3,0-0.6,0-0.9,0h-0.1v5.8c0,2,0.9,2.8,2.4,4.1
				c1.2,0.9,2.6,1.4,4.2,1.4c0.2,0,0.3,0,0.5,0C23.1,25.1,21.9,24.6,20.8,23.8z"/>
		</g>
	</g>
	<path class="st3" d="M15.9,19.2h-0.1c-0.9-0.2-1.9-0.8-1.9-2.1c0-0.9,0.4-1.8,2-1.9l0,0V19.2z"/>
	<g>
		<defs>
			<rect id="SVGID_1_" x="15.5" y="34.2" width="17" height="10.6"/>
		</defs>
		<clipPath id="SVGID_2_">
			<use xlink:href="#SVGID_1_"  style="overflow:visible;"/>
		</clipPath>
		<g class="st6">
			<g>
				<path class="st7" d="M29.8,40.3c0-0.1-0.1-0.1-0.1-0.1l-0.8,0c-0.2,0-0.5-0.2-0.5-0.4c-0.2-0.6-0.5-1.2-1-1.7
					c-0.2-0.2-0.2-0.4-0.1-0.7l0.4-0.7c0-0.1,0-0.1,0-0.2c-0.4-0.3-0.8-0.5-1.2-0.7c-0.1,0-0.1,0-0.2,0.1l-0.4,0.7
					c-0.1,0.2-0.4,0.3-0.6,0.3c-0.6-0.2-1.3-0.1-2,0c-0.2,0.1-0.5,0-0.6-0.3l-0.4-0.7c0-0.1-0.1-0.1-0.2-0.1
					c-0.2,0.1-0.4,0.2-0.6,0.3c-0.2,0.1-0.4,0.2-0.6,0.4c-0.1,0-0.1,0.1,0,0.2l0.4,0.7c0.1,0.2,0.1,0.5-0.1,0.7
					c-0.2,0.3-0.4,0.5-0.6,0.8c-0.2,0.3-0.3,0.6-0.4,0.9c-0.1,0.2-0.3,0.4-0.5,0.4l-0.8,0c-0.1,0-0.1,0.1-0.1,0.1c0,0.2,0,0.5,0,0.7
					c0,0.2,0,0.5,0,0.7c0,0.1,0.1,0.1,0.1,0.1l0.8,0c0.2,0,0.5,0.2,0.5,0.4c0.2,0.6,0.5,1.2,1,1.7c0.2,0.2,0.2,0.4,0.1,0.7l-0.4,0.7
					c0,0.1,0,0.1,0,0.2c0.2,0.1,0.4,0.3,0.6,0.4c0.2,0.1,0.4,0.2,0.6,0.3c0.1,0,0.1,0,0.2-0.1l0.4-0.7c0.1-0.2,0.4-0.3,0.6-0.3
					c0.6,0.2,1.3,0.1,2,0c0.2-0.1,0.5,0,0.6,0.3l0.4,0.7c0,0.1,0.1,0.1,0.2,0.1c0.2-0.1,0.4-0.2,0.6-0.3c0.2-0.1,0.4-0.2,0.6-0.4
					c0.1,0,0.1-0.1,0-0.2l-0.4-0.7c-0.1-0.2-0.1-0.5,0.1-0.7c0.2-0.3,0.4-0.5,0.6-0.8c0.2-0.3,0.3-0.6,0.4-0.9
					c0.1-0.2,0.3-0.4,0.5-0.4l0.8,0c0.1,0,0.1-0.1,0.1-0.1c0-0.2,0-0.5,0-0.7C29.8,40.7,29.8,40.5,29.8,40.3z M24,43.8
					c-1.5,0-2.8-1.2-2.8-2.8c0-1.5,1.2-2.8,2.8-2.8c1.5,0,2.8,1.2,2.8,2.8C26.8,42.5,25.5,43.8,24,43.8z"/>
			</g>
			<path class="st2" d="M28.6,44.7l-0.2-0.3c0.2-0.2,0.3-0.4,0.4-0.7c0.1-0.2,0.2-0.5,0.3-0.7l0.4,0c0.7,0,1.2-0.5,1.3-1.2
				c0-0.3,0.1-0.6,0.1-0.9c0-0.3,0-0.6-0.1-0.9c-0.1-0.7-0.7-1.2-1.3-1.2l-0.4,0c-0.2-0.5-0.5-0.9-0.8-1.4l0.2-0.3
				c0.3-0.6,0.2-1.3-0.4-1.7c-0.5-0.3-0.9-0.6-1.5-0.8c-0.6-0.3-1.3,0-1.7,0.6l-0.2,0.3c-0.5-0.1-1-0.1-1.6,0l-0.2-0.3
				c-0.3-0.6-1.1-0.8-1.7-0.6c-0.3,0.1-0.5,0.2-0.8,0.4c-0.2,0.1-0.5,0.3-0.7,0.5c-0.5,0.4-0.7,1.2-0.3,1.7l0.2,0.3
				c-0.2,0.2-0.3,0.4-0.4,0.7c-0.1,0.2-0.2,0.5-0.3,0.7l-0.4,0c-0.7,0-1.2,0.5-1.3,1.2c0,0.3-0.1,0.6-0.1,0.9c0,0.3,0,0.6,0.1,0.9
				c0.1,0.7,0.7,1.2,1.3,1.2l0.4,0c0.2,0.5,0.5,0.9,0.8,1.4l-0.2,0.3c-0.3,0.6-0.2,1.3,0.4,1.7c0.2,0.2,0.5,0.3,0.7,0.5
				c0.2,0.1,0.5,0.3,0.8,0.4c0.6,0.3,1.3,0,1.7-0.6l0.2-0.3c0.5,0.1,1,0.1,1.6,0l0.2,0.3c0.3,0.6,1.1,0.8,1.7,0.6
				c0.3-0.1,0.5-0.2,0.8-0.4c0.2-0.1,0.5-0.3,0.7-0.5C28.8,46,29,45.3,28.6,44.7z M28.2,42.2c-0.1,0.3-0.2,0.6-0.4,0.9
				c-0.2,0.3-0.4,0.5-0.6,0.8c-0.2,0.2-0.2,0.4-0.1,0.7l0.4,0.7c0,0.1,0,0.1,0,0.2c-0.2,0.1-0.4,0.3-0.6,0.4
				c-0.2,0.1-0.4,0.2-0.6,0.3c-0.1,0-0.1,0-0.2-0.1l-0.4-0.7c-0.1-0.2-0.4-0.3-0.6-0.3c-0.6,0.2-1.3,0.2-2,0
				c-0.2-0.1-0.5,0.1-0.6,0.3l-0.4,0.7c0,0.1-0.1,0.1-0.2,0.1c-0.2-0.1-0.4-0.2-0.6-0.3c-0.2-0.1-0.4-0.2-0.6-0.4
				c-0.1,0-0.1-0.1,0-0.2l0.4-0.7c0.1-0.2,0.1-0.5-0.1-0.7c-0.5-0.5-0.8-1.1-1-1.7c-0.1-0.2-0.3-0.4-0.5-0.4l-0.8,0
				c-0.1,0-0.1-0.1-0.1-0.1c0-0.2,0-0.5,0-0.7c0-0.2,0-0.5,0-0.7c0-0.1,0.1-0.1,0.1-0.1l0.8,0c0.2,0,0.5-0.2,0.5-0.4
				c0.1-0.3,0.2-0.6,0.4-0.9c0.2-0.3,0.4-0.5,0.6-0.8c0.2-0.2,0.2-0.4,0.1-0.7l-0.4-0.7c0-0.1,0-0.1,0-0.2c0.2-0.1,0.4-0.3,0.6-0.4
				c0.2-0.1,0.4-0.2,0.6-0.3c0.1,0,0.1,0,0.2,0.1l0.4,0.7c0.1,0.2,0.4,0.3,0.6,0.3c0.7-0.2,1.3-0.2,2,0c0.2,0.1,0.5,0,0.6-0.3
				l0.4-0.7c0-0.1,0.1-0.1,0.2-0.1c0.4,0.2,0.8,0.4,1.2,0.7c0.1,0,0.1,0.1,0,0.2l-0.4,0.7c-0.1,0.2-0.1,0.5,0.1,0.7
				c0.5,0.5,0.8,1.1,1,1.7c0.1,0.2,0.3,0.4,0.5,0.4l0.8,0c0.1,0,0.1,0.1,0.1,0.1c0,0.2,0,0.5,0,0.7c0,0.2,0,0.5,0,0.7
				c0,0.1-0.1,0.1-0.1,0.1l-0.8,0C28.5,41.8,28.3,42,28.2,42.2z"/>
			<g>
				<path class="st2" d="M24,38.2c-1.5,0-2.8,1.2-2.8,2.8c0,1.5,1.2,2.8,2.8,2.8c1.5,0,2.8-1.2,2.8-2.8C26.8,39.4,25.5,38.2,24,38.2
					z M25.6,41c0,0.9-0.7,1.6-1.6,1.6s-1.6-0.7-1.6-1.6c0-0.9,0.7-1.6,1.6-1.6S25.6,40.1,25.6,41z"/>
			</g>
		</g>
	</g>
</g>
</svg>
