<?xml version="1.0" encoding="iso-8859-1"?>
<!-- Generator: Adobe Illustrator 22.0.1, SVG Export Plug-In . SVG Version: 6.00 Build 0)  -->
<svg version="1.1" id="Layer_1" xmlns="http://www.w3.org/2000/svg" xmlns:xlink="http://www.w3.org/1999/xlink" x="0px" y="0px"
	 viewBox="0 0 48 48" style="enable-background:new 0 0 48 48;" xml:space="preserve">
<g>
	<circle style="opacity:0.2;fill:#00CCFF;enable-background:new    ;" cx="24" cy="24" r="24"/>
</g>
<g>
	<path style="fill:#E5E5E5;" d="M45.403,15.837l-1.374,4.405L43.5,21.941l-1.42,4.555l-0.53,1.698l-1.461,4.686
		c-0.103,0.329-0.527,0.651-0.857,0.651H34.04h-1.638H21.508h-1.639h-4.422c-0.313,0-0.702-0.291-0.83-0.601l-1.468-4.736
		l-0.547-1.698L9.291,15.838c-0.018-0.059-0.019-0.096-0.018-0.113c0.015-0.006,0.047-0.016,0.101-0.016l35.945-0.001
		c0.055,0,0.087,0.009,0.102,0.016C45.423,15.742,45.422,15.778,45.403,15.837z"/>
	<g>
		<path style="fill:#30B8BF;" d="M31.582,14.011h-7.389V5.097c0-0.153,0.125-0.283,0.273-0.283h6.843
			c0.148,0,0.273,0.13,0.273,0.283C31.582,5.097,31.582,14.011,31.582,14.011z"/>
		<path style="fill:#30B8BF;" d="M39.846,14.011h-6.625v-3.205h6.352c0.148,0,0.273,0.13,0.273,0.283V14.011z"/>
		<path style="fill:#30B8BF;" d="M15.286,7.05c-0.148,0-0.272,0.13-0.272,0.282v1.801c0,0.467-0.366,0.847-0.817,0.847v1.354
			c0.451,0,0.817,0.379,0.817,0.847v1.901h7.494V7.05H15.286z"/>
		<path style="fill:#30B8BF;" d="M15.286,7.05c-0.148,0-0.272,0.13-0.272,0.282v1.801c0,0.467-0.366,0.847-0.817,0.847v1.354
			c0.451,0,0.817,0.379,0.817,0.847v1.901h7.494V7.05H15.286z"/>
		<path style="fill:#4AE5E1;" d="M15.964,7.05h-0.677c-0.148,0-0.272,0.13-0.272,0.282v1.801c0,0.467-0.366,0.847-0.817,0.847v1.354
			c0.451,0,0.817,0.379,0.817,0.847v1.901h0.677v-6.75C15.691,7.179,15.816,7.05,15.964,7.05z"/>
		<path style="fill:#4AE5E1;" d="M25.529,4.814h-1.062c-0.148,0-0.273,0.13-0.273,0.283v8.914h1.062V5.097
			C25.256,4.944,25.381,4.814,25.529,4.814z"/>
	</g>
	<path style="fill:#00555F;" d="M42.911,36.276H10.096c-0.455,0-0.824,0.369-0.824,0.824s0.369,0.824,0.824,0.824H42.91
		c0.455,0,0.824-0.369,0.824-0.824C43.735,36.645,43.366,36.276,42.911,36.276z"/>
	<circle style="fill:#C1C1C1;stroke:#00555F;stroke-width:1.5;stroke-miterlimit:10;" cx="17.773" cy="41.1" r="4"/>
	<circle style="fill:#C1C1C1;stroke:#00555F;stroke-width:1.5;stroke-miterlimit:10;" cx="35.118" cy="41.1" r="4"/>
	<path style="fill:#9B9B9B;" d="M35.118,43.6c-1.664,0-3.023-1.261-3.212-2.875c-0.015,0.125-0.038,0.247-0.038,0.375
		c0,1.792,1.458,3.25,3.25,3.25s3.25-1.458,3.25-3.25c0-0.128-0.023-0.251-0.038-0.375C38.141,42.339,36.781,43.6,35.118,43.6z"/>
	<path style="fill:#9B9B9B;" d="M17.774,43.6c-1.664,0-3.023-1.261-3.212-2.875c-0.015,0.125-0.038,0.247-0.038,0.375
		c0,1.792,1.458,3.25,3.25,3.25s3.25-1.458,3.25-3.25c0-0.128-0.023-0.251-0.038-0.375C20.797,42.339,19.437,43.6,17.774,43.6z"/>
	<path style="fill:#C1C1C1;" d="M38.694,32.492h-3.576H34.04H23.036v-0.001H15.64v0.001l0.102,0.326l0.02,0.062
		c0.102,0.329,0.527,0.651,0.857,0.651h4.889v0.001H34.04h1.078h3.251c0.33,0,0.754-0.322,0.857-0.651l0.325-1.041
		C39.448,32.169,39.024,32.492,38.694,32.492z"/>
	<path style="fill:#00555F;" d="M6.93,23.305H1.562c-0.408,0-0.738,0.339-0.738,0.758s0.33,0.758,0.738,0.758H6.93
		c0.408,0,0.738-0.339,0.738-0.758S7.338,23.305,6.93,23.305z"/>
	<path style="fill:#00555F;" d="M9.816,28.671H3.688c-0.408,0-0.738,0.339-0.738,0.758s0.33,0.758,0.738,0.758h6.128
		c0.408,0,0.738-0.339,0.738-0.758S10.224,28.671,9.816,28.671z"/>
	<g>
		<path style="fill:none;" d="M31.309,4.814h-6.843c-0.148,0-0.273,0.13-0.273,0.283v8.914h7.389V5.097
			C31.582,4.944,31.457,4.814,31.309,4.814z"/>
		<path style="fill:none;" d="M39.573,10.806h-6.352v3.205h6.625v-2.922C39.846,10.936,39.721,10.806,39.573,10.806z"/>
	</g>
</g>
<path style="fill:#FFFFFF;" d="M16.13,32.93l-1.468-4.736l-0.547-1.698l-3.311-10.658c-0.018-0.059-0.019-0.096-0.018-0.113
	c0.015-0.006,0.047-0.016,0.101-0.016l33.569-0.001c0,0,0,0,0,0L9.374,15.71c-0.054,0-0.086,0.009-0.101,0.016
	c-0.001,0.017,0,0.054,0.018,0.113l3.311,10.658l0.547,1.698l1.468,4.736c0.128,0.31,0.517,0.601,0.83,0.601h1.513
	C16.647,33.531,16.258,33.24,16.13,32.93z"/>
<path style="fill:#C1C1C1;" d="M27.948,23.781"/>
<path style="fill:#00555F;" d="M27.632,23.574h-1.524c-0.554,0-1.003-0.449-1.003-1.003c0-0.554,0.449-1.003,1.003-1.003h2.683
	c0.366,0,0.665-0.299,0.665-0.665c0-0.366-0.299-0.665-0.665-0.665h-1.258v-0.926c0-0.366-0.299-0.665-0.665-0.665
	c-0.366,0-0.665,0.299-0.665,0.665v0.926h-0.094c-1.286,0-2.333,1.048-2.333,2.333c0,1.286,1.048,2.333,2.333,2.333h1.524
	c0.554,0,1.003,0.449,1.003,1.003c0,0.554-0.449,1.003-1.003,1.003h-2.732c-0.366,0-0.665,0.299-0.665,0.665
	c0,0.366,0.299,0.665,0.665,0.665h1.308v0.948c0,0.366,0.299,0.665,0.665,0.665c0.366,0,0.665-0.299,0.665-0.665v-0.948h0.127
	c1.275-0.016,2.3-1.058,2.3-2.333C29.965,24.622,28.918,23.574,27.632,23.574L27.632,23.574z M27.632,23.574"/>
<path style="fill:#00555F;" d="M45.762,14.79c-0.316-0.451-0.836-0.709-1.426-0.709h-2.962V11.17c0-1.089-0.855-1.975-1.905-1.975
	h-6.33V5.198c0-1.089-0.855-1.974-1.905-1.974h-6.82c-1.051,0-1.905,0.886-1.905,1.974v0.16h-7.222
	c-1.051,0-1.905,0.886-1.905,1.974v1.801c0,0.467,0.365,0.847,0.817,0.847c0.451,0,0.817-0.379,0.817-0.847V7.332
	c0-0.153,0.125-0.282,0.272-0.282h7.222v7.032h-7.494V12.18c0-0.467-0.366-0.847-0.817-0.847c-0.451,0-0.817,0.379-0.817,0.847
	v1.901l-4.129,0.013c-0.168,0.01-0.326,0.048-0.477,0.097L6.347,6.369l0.246,0.783c0,0-0.47-1.553-0.559-1.869
	c-0.132-0.465-0.52-0.9-1.01-0.901L0.721,4.366C0.324,4.365,0.001,4.705,0,5.129c-0.001,0.424,0.319,0.767,0.716,0.768L3.982,5.91
	c0.312,0.001,0.58,0.198,0.643,0.531c0,0,9.49,30.458,9.81,31.484h1.737l-0.831-2.668l-0.008-0.026H38.27
	c1.032,0,2.09-0.8,2.408-1.821l2.781-8.95c0.129-0.422-0.097-0.866-0.504-0.99c-0.407-0.125-0.842,0.117-0.971,0.539l-2.757,8.873
	c-0.103,0.329-0.527,0.651-0.857,0.651H34.04h-1.638H21.508h-1.639h-4.422c-0.313,0-0.702-0.291-0.83-0.601l-1.468-4.736
	l-0.547-1.698L9.291,15.838c-0.018-0.059-0.019-0.096-0.018-0.113c0.015-0.006,0.047-0.016,0.101-0.016l35.082-0.001
	c0.055,0,0.087,0.009,0.102,0.016c0.002,0.018,0.001,0.054-0.018,0.113l-1.125,3.818c-0.129,0.422,0.097,0.866,0.504,0.99
	c0.407,0.125,0.842-0.117,0.971-0.539l1.085-3.683C46.157,15.837,46.08,15.242,45.762,14.79z M31.582,14.011h-7.389V5.097
	c0-0.153,0.125-0.283,0.273-0.283h6.843c0.148,0,0.273,0.13,0.273,0.283V14.011z M39.846,14.011h-6.625v-3.205h6.352
	c0.148,0,0.273,0.13,0.273,0.283V14.011z"/>
</svg>
