<?xml version="1.0" encoding="iso-8859-1"?>
<!-- Generator: Adobe Illustrator 22.0.1, SVG Export Plug-In . SVG Version: 6.00 Build 0)  -->
<svg version="1.1" id="Layer_1" xmlns="http://www.w3.org/2000/svg" xmlns:xlink="http://www.w3.org/1999/xlink" x="0px" y="0px"
	 viewBox="0 0 48 48" style="enable-background:new 0 0 48 48;" xml:space="preserve">
<g>
	<circle style="opacity:0.2;fill:#00CCFF;enable-background:new    ;" cx="24" cy="24" r="24"/>
</g>
<g>
	<path style="fill:#E5E5E5;" d="M41.9,6.195H6.853c-0.319,0-0.602,0.126-0.828,0.315c-0.027,0.021-0.06,0.032-0.084,0.055
		C5.875,6.629,5.836,6.714,5.785,6.791C5.747,6.85,5.694,6.9,5.665,6.966C5.6,7.117,5.564,7.284,5.564,7.458v31.084
		c0,0.174,0.036,0.341,0.101,0.492c0.029,0.066,0.082,0.116,0.12,0.176c0.05,0.077,0.09,0.161,0.155,0.226
		c0.023,0.023,0.058,0.034,0.084,0.055c0.226,0.189,0.508,0.315,0.828,0.315h10.809h0.48c0.292,0,0.53,0.232,0.53,0.519v0.997v1.502
		c0,0.416,0.474,0.663,0.825,0.43l2.915-1.932c1.224-0.796,0.723-0.501,1.749-1.109c0.083-0.049,0.735-0.407,0.832-0.407h1.791H41.9
		c0.712,0,1.289-0.566,1.289-1.263v-2.939V7.458C43.189,6.761,42.612,6.195,41.9,6.195z"/>
	<path style="fill:#FFFFFF;" d="M6.416,40.661H6.274c-0.39,0-0.71-0.463-0.71-1.029V6.492c0-0.566,0.319-1.029,0.71-1.029h0.142
		c0.39,0,0.71,0.463,0.71,1.029v33.14C7.126,40.198,6.807,40.661,6.416,40.661z"/>
	<path style="fill:#00555F;" d="M43.195,20.242c0.419,0,0.758-0.339,0.758-0.758V7.977c0-1.821-1.476-3.298-3.298-3.298H20.62H6.826
		c-0.192,0-0.379,0.019-0.56,0.056c-0.905,0.185-1.649,0.81-2,1.641C4.125,6.709,4.047,7.074,4.047,7.458v31.084
		c0,0.384,0.078,0.749,0.218,1.082c0.211,0.499,0.563,0.923,1.007,1.223s0.978,0.475,1.554,0.475h9.563
		c0.286,0,0.519,0.232,0.519,0.519v2.777c0,0.395,0.217,0.756,0.565,0.94c0.158,0.084,0.33,0.126,0.501,0.126
		c0.208,0,0.417-0.062,0.597-0.184l6.048-4.09c0.086-0.058,0.187-0.089,0.291-0.089h15.745c1.821,0,3.298-1.476,3.298-3.298v-2.592
		V27.91V24c0-0.419-0.339-0.758-0.758-0.758S42.437,23.581,42.437,24v3.91v7.693v2.42c0,0.984-0.798,1.782-1.782,1.782H24.603
		c-0.095,0-0.734,0.358-0.815,0.407c-1.005,0.608-0.514,0.313-1.714,1.109l-2.857,1.932c-0.344,0.233-0.809-0.014-0.809-0.43v-1.502
		v-0.997c0-0.286-0.232-0.519-0.519-0.519H6.827c-0.012,0-0.022-0.006-0.034-0.007c-0.006,0-0.011,0.003-0.017,0.003
		c-0.508,0-0.929-0.317-1.107-0.76c-0.001-0.003-0.004-0.005-0.005-0.008c-0.013-0.03-0.009-0.067-0.02-0.099
		c-0.029-0.097-0.066-0.191-0.07-0.296c0.003,0.001,0.007,0.001,0.011,0.002c-0.003-0.034-0.02-0.064-0.02-0.099V7.458
		c0-0.174,0.035-0.341,0.099-0.492C5.691,6.9,5.743,6.85,5.781,6.791C5.83,6.714,5.869,6.63,5.933,6.565
		C5.957,6.542,5.99,6.531,6.015,6.51c0.221-0.189,0.498-0.315,0.811-0.315h33.828c0.984,0,1.782,0.798,1.782,1.782v11.507
		C42.437,19.903,42.776,20.242,43.195,20.242z"/>
</g>
<g>
	<g>
		<g>
			<g>
				<defs>
					<path id="SVGID_1_" d="M41.173,6.195H6.827c-0.313,0-0.59,0.126-0.811,0.315C5.99,6.531,5.957,6.542,5.934,6.565
						C5.869,6.629,5.831,6.714,5.781,6.791C5.743,6.85,5.691,6.9,5.663,6.966C5.599,7.117,5.564,7.284,5.564,7.458v31.084
						c0,0.174,0.035,0.341,0.099,0.492c0.028,0.066,0.08,0.116,0.118,0.176c0.049,0.077,0.088,0.161,0.152,0.226
						c0.023,0.023,0.057,0.034,0.082,0.055c0.221,0.189,0.498,0.315,0.811,0.315h10.593h0.47c0.286,0,0.519,0.232,0.519,0.519v0.997
						v1.502c0,0.416,0.465,0.663,0.809,0.43l2.857-1.932c1.2-0.796,0.709-0.501,1.714-1.109c0.081-0.049,0.72-0.407,0.815-0.407
						h1.755h14.815c0.698,0,1.263-0.566,1.263-1.263v-2.939V7.458C42.436,6.761,41.871,6.195,41.173,6.195z"/>
				</defs>
				<clipPath id="SVGID_2_">
					<use xlink:href="#SVGID_1_"  style="overflow:visible;"/>
				</clipPath>
				<polyline style="clip-path:url(#SVGID_2_);fill:#FFFFFF;" points="7.354,31.155 10.501,30.009 12.95,36.736 9.803,37.881 				
					"/>
			</g>
		</g>
	</g>
	<g>
		<g>
			<g>
				<defs>
					<path id="SVGID_3_" d="M41.173,6.195H6.827c-0.313,0-0.59,0.126-0.811,0.315C5.99,6.531,5.957,6.542,5.934,6.565
						C5.869,6.629,5.831,6.714,5.781,6.791C5.743,6.85,5.691,6.9,5.663,6.966C5.599,7.117,5.564,7.284,5.564,7.458v31.084
						c0,0.174,0.035,0.341,0.099,0.492c0.028,0.066,0.08,0.116,0.118,0.176c0.049,0.077,0.088,0.161,0.152,0.226
						c0.023,0.023,0.057,0.034,0.082,0.055c0.221,0.189,0.498,0.315,0.811,0.315h10.593h0.47c0.286,0,0.519,0.232,0.519,0.519v0.997
						v1.502c0,0.416,0.465,0.663,0.809,0.43l2.857-1.932c1.2-0.796,0.709-0.501,1.714-1.109c0.081-0.049,0.72-0.407,0.815-0.407
						h1.755h14.815c0.698,0,1.263-0.566,1.263-1.263v-2.939V7.458C42.436,6.761,41.871,6.195,41.173,6.195z"/>
				</defs>
				<clipPath id="SVGID_4_">
					<use xlink:href="#SVGID_3_"  style="overflow:visible;"/>
				</clipPath>
				<path style="clip-path:url(#SVGID_4_);fill:#30B8BF;" d="M10.297,42.315l7.72-2.884c0.818-0.298,0.968-1.371,0.671-2.19
					l-4.164-11.439c-0.298-0.818-1.203-1.24-2.021-0.942L3.13,28.346c-0.818,0.298-1.24,1.203-0.942,2.021l4.595,12.625
					c0.059,0.163,0.512,0.416,0.675,0.357L10.297,42.315z M6.644,30.083l3.712-1.351c0.493-0.179,1.037,0.075,1.217,0.567
					l2.654,7.292c0.179,0.493-0.075,1.037-0.567,1.217L9.23,39.42c-0.096,0.035-0.203-0.015-0.238-0.111l-2.915-8.01
					C5.898,30.807,6.152,30.262,6.644,30.083z"/>
			</g>
		</g>
	</g>
	<g>
		<g>
			<g>
				<defs>
					<path id="SVGID_5_" d="M41.173,6.195H6.827c-0.313,0-0.59,0.126-0.811,0.315C5.99,6.531,5.957,6.542,5.934,6.565
						C5.869,6.629,5.831,6.714,5.781,6.791C5.743,6.85,5.691,6.9,5.663,6.966C5.599,7.117,5.564,7.284,5.564,7.458v31.084
						c0,0.174,0.035,0.341,0.099,0.492c0.028,0.066,0.08,0.116,0.118,0.176c0.049,0.077,0.088,0.161,0.152,0.226
						c0.023,0.023,0.057,0.034,0.082,0.055c0.221,0.189,0.498,0.315,0.811,0.315h10.593h0.47c0.286,0,0.519,0.232,0.519,0.519v0.997
						v1.502c0,0.416,0.465,0.663,0.809,0.43l2.857-1.932c1.2-0.796,0.709-0.501,1.714-1.109c0.081-0.049,0.72-0.407,0.815-0.407
						h1.755h14.815c0.698,0,1.263-0.566,1.263-1.263v-2.939v-10.51V20l0.121-0.177l-0.121-0.541V7.458
						C42.436,6.761,41.871,6.195,41.173,6.195z"/>
				</defs>
				<clipPath id="SVGID_6_">
					<use xlink:href="#SVGID_5_"  style="overflow:visible;"/>
				</clipPath>
				<g style="clip-path:url(#SVGID_6_);">
					<path style="fill:#FFFFFF;" d="M41.656,37.026l-12.339,4.132c-0.209,0.07-0.436-0.044-0.506-0.252l-2.582-7.711
						c-0.07-0.209,0.044-0.436,0.252-0.506l12.339-4.132c0.209-0.07,0.436,0.044,0.506,0.252l2.582,7.711
						C41.978,36.729,41.864,36.957,41.656,37.026z"/>
					<g>
						<path style="fill:#00555F;" d="M38.852,20.14l-0.245-0.672c-0.209-0.574-0.63-1.033-1.184-1.291
							c-0.554-0.259-1.174-0.287-1.75-0.077l-12.947,4.712c-0.574,0.209-1.033,0.629-1.291,1.183s-0.286,1.176-0.077,1.749
							l0.245,0.674c0.337,0.928,1.218,1.505,2.154,1.505c0.259,0,0.522-0.044,0.779-0.137l12.946-4.713
							c0.574-0.208,1.033-0.629,1.292-1.183S39.061,20.716,38.852,20.14z M37.056,21.9l-12.947,4.712
							c-0.539,0.196-1.135-0.082-1.331-0.621l-0.245-0.672c-0.196-0.539,0.082-1.135,0.621-1.331l12.947-4.712
							c0.539-0.196,1.135,0.082,1.331,0.621l0.245,0.672C37.873,21.108,37.595,21.704,37.056,21.9z"/>
					</g>
					<g>
						<g>
							<path style="fill:#30B8BF;" d="M37.056,21.9l-12.947,4.712c-0.539,0.196-1.135-0.082-1.331-0.621l-0.245-0.672
								c-0.196-0.539,0.082-1.135,0.621-1.331l12.947-4.712c0.539-0.196,1.135,0.082,1.331,0.621l0.245,0.672
								C37.873,21.108,37.595,21.704,37.056,21.9z"/>
						</g>
						<g>
							<path style="fill:#00555F;" d="M10.356,28.732l-3.712,1.351c-0.493,0.179-0.747,0.724-0.567,1.217l2.915,8.01
								c0.035,0.096,0.141,0.146,0.238,0.111l4.43-1.612c0.493-0.179,0.747-0.724,0.567-1.217L11.573,29.3
								C11.394,28.806,10.849,28.552,10.356,28.732z M9.803,37.881l-2.449-6.727l3.147-1.146l2.449,6.727L9.803,37.881z"/>
							<path style="fill:#00555F;" d="M19.291,37.096l-1.374-3.763c-0.118-0.325-0.479-0.492-0.802-0.374
								c-0.325,0.119-0.493,0.477-0.374,0.802l1.376,3.763c0.298,0.818-0.124,1.723-0.942,2.021l-7.149,2.602l-2.84,1.033
								c-0.163,0.059-0.344-0.025-0.404-0.188L2.188,30.367c-0.298-0.818,0.124-1.723,0.942-2.021l8.802-3.204
								c0.818-0.298,1.723,0.124,2.021,0.942l1.616,4.444c0.001-0.001,0.003-0.002,0.004-0.003c0.102,0.232,0.326,0.377,0.569,0.377
								c0.071,0,0.144-0.012,0.214-0.038c0.325-0.119,0.493-0.477,0.374-0.802l-1.602-4.406c-0.258-0.709-0.777-1.276-1.462-1.595
								c-0.684-0.319-1.453-0.353-2.162-0.095L2.703,27.17c-0.709,0.259-1.276,0.777-1.595,1.461
								c-0.32,0.685-0.354,1.452-0.095,2.162l4.595,12.624c0.143,0.394,0.43,0.707,0.81,0.885c0.21,0.098,0.435,0.146,0.66,0.146
								c0.181,0,0.362-0.031,0.537-0.095l2.838-1.033l0,0l7.149-2.602C19.066,40.187,19.824,38.561,19.291,37.096z"/>
						</g>
						<g>
							<path style="fill:#30B8BF;" d="M42.644,39.592l3.065-1.115c0.164-0.06,0.248-0.241,0.189-0.405l-4.353-11.959
								c-0.298-0.82-1.278-1.833-2.098-1.535l-16.018,5.83c-0.82,0.298-1.169,1.795-0.871,2.615l3.919,10.769
								c0.299,0.821,1.207,1.245,2.029,0.946L42.644,39.592z M27.673,32.384l10.019-3.622c0.493-0.179,1.038,0.075,1.217,0.568
								l2.55,7.158c0.095,0.265-0.042,0.557-0.306,0.655l-10.155,3.741c-0.492,0.179-1.036-0.075-1.215-0.567l-2.47-6.785
								C27.133,33.038,27.18,32.564,27.673,32.384z"/>
						</g>
						<g>
							<path style="fill:#30B8BF;" d="M26.159,8.925l-2.061,0.75c-0.917,0.334-1.573,1.152-1.715,1.889
								c-0.954,4.951-3.378,10.058-6.551,14.103c-0.387,0.493,0.53,1.277,1.111,1.512c0.435,0.175,0.89,0.358,1.288,0.514
								c0.384,0.151,0.826,0.035,1.083-0.288c0.964-1.215,1.821-2.48,2.598-3.789l0.642-1.064c1.735-3.17,2.999-6.485,3.735-9.849
								c0.053-0.241,0.323-0.347,0.521-0.2c3.64,2.685,8.861,5.348,14.204,6.513c0.427,0.093,0.861-0.126,1.047-0.522
								c0.193-0.41,0.436-0.931,0.668-1.426c0.262-0.559-0.071-1.227-0.679-1.328c-5.168-0.858-10.895-3.464-14.99-6.667
								C26.804,8.87,26.468,8.813,26.159,8.925z"/>
						</g>
					</g>
					<g>
						<path style="fill:#00555F;" d="M47.063,37.618L42.71,25.657c-0.535-1.464-2.159-2.224-3.628-1.69l-0.407,0.148v-0.003
							L36.9,24.769c-0.317,0.115-0.477,0.472-0.359,0.797s0.47,0.495,0.787,0.38l2.183-0.803c0.82-0.298,1.727,0.124,2.025,0.944
							l4.353,11.959c0.06,0.164-0.025,0.345-0.189,0.405l-3.065,1.115l-14.139,5.146c-0.821,0.299-1.73-0.125-2.029-0.946
							l-3.919-10.769c-0.298-0.82,0.124-1.727,0.944-2.025l13.836-5.026c0.317-0.115,0.477-0.471,0.359-0.797
							s-0.47-0.495-0.787-0.38l-6.791,2.46c0.001,0,0.001,0.001,0.002,0.002l-7.047,2.565c-1.465,0.534-2.224,2.162-1.691,3.628
							l3.92,10.77c0.419,1.148,1.508,1.863,2.665,1.863c0.321,0,0.647-0.056,0.966-0.171l17.202-6.262
							c0.394-0.143,0.708-0.431,0.885-0.81C47.187,38.437,47.206,38.012,47.063,37.618z"/>
						<path style="fill:#00555F;" d="M41.529,36.512l-2.625-7.21c-0.18-0.493-0.725-0.747-1.218-0.568l-10.397,3.79
							c-0.493,0.179-0.747,0.724-0.568,1.217c0,0,1.24,3.428,1.697,4.687c0,0.001,0,0.002,0,0.003l0.037,0.101
							c0.078,0.216,0.128,0.354,0.128,0.354c0.001,0.002,0.003,0.003,0.004,0.005l0.606,1.641c0.181,0.489,0.723,0.74,1.213,0.562
							l10.827-3.946C41.491,37.053,41.623,36.769,41.529,36.512z M39.811,36.335l-9.271,3.379c-0.153,0.056-0.323-0.023-0.379-0.176
							l-0.567-1.535c-0.003-0.007-0.008-0.011-0.011-0.018l-1.482-4.106c-0.056-0.157,0.024-0.329,0.181-0.386l9.274-3.38
							c0.153-0.056,0.323,0.023,0.378,0.176l2.059,5.656C40.05,36.103,39.969,36.278,39.811,36.335z"/>
					</g>
					<path style="fill:#00555F;" d="M43.82,15.644c-0.321-0.611-0.896-1.027-1.577-1.141c-4.878-0.814-10.414-3.282-14.439-6.439
						c-0.588-0.462-1.383-0.565-2.086-0.31L23.475,8.57c-0.743,0.27-1.297,0.916-1.411,1.698c-0.278,1.91-0.805,3.871-1.529,5.809
						l0,0l0,0c0,0.001-0.001,0.002-0.001,0.003c0,0,0,0,0.001,0.001c-0.119,0.325,0.044,0.686,0.369,0.808
						c0.073,0.028,0.148,0.04,0.222,0.04c0.22,0,0.428-0.116,0.543-0.309c0,0,0.001,0.001,0.001,0
						c0.766-2.025,1.324-4.095,1.624-6.121c0.051-0.346,0.277-0.633,0.606-0.753l2.057-0.749c0.514-0.187,0.848-0.13,1.106,0.073
						c4.094,3.203,9.823,5.809,14.989,6.667c0.609,0.101,0.941,0.77,0.678,1.328c-0.233,0.495-0.475,1.016-0.668,1.426
						c-0.187,0.395-0.62,0.615-1.047,0.522c-5.366-1.17-10.607-3.85-14.249-6.546c-0.177-0.131-0.418-0.036-0.465,0.179
						c-0.735,3.383-2.003,6.716-3.747,9.904l-0.642,1.064c-0.777,1.31-1.635,2.575-2.598,3.789c-0.256,0.323-0.698,0.44-1.082,0.289
						c-0.398-0.156-0.854-0.339-1.289-0.514c-0.59-0.238-0.771-0.97-0.378-1.471c1.425-1.82,2.697-3.856,3.754-5.994
						c0-0.001,0.002-0.001,0.002-0.002c0.004-0.009,0.091-0.185,0.113-0.231c0.15-0.31,0.02-0.683-0.29-0.833
						c-0.308-0.148-0.682-0.019-0.833,0.29l-0.862,1.81c-0.731,1.534-1.796,2.858-2.863,4.181c-0.443,0.55-0.592,1.258-0.41,1.939
						c0.18,0.673,0.654,1.208,1.298,1.468c0.438,0.178,0.897,0.361,1.298,0.519c0.266,0.104,0.542,0.155,0.812,0.155
						c0.653,0,1.283-0.292,1.708-0.828c0.97-1.223,1.852-2.508,2.69-3.921l0.668-1.11c1.502-2.745,2.654-5.577,3.434-8.447
						c0.054-0.199,0.278-0.284,0.449-0.17c3.996,2.655,8.789,4.737,13.213,5.701c1.002,0.221,2.01-0.282,2.447-1.212l0.669-1.424
						C44.158,16.971,44.143,16.258,43.82,15.644z"/>
				</g>
			</g>
		</g>
	</g>
	<g>
		<g>
			<g>
				<defs>
					<path id="SVGID_7_" d="M41.173,6.195H6.827c-0.313,0-0.59,0.126-0.811,0.315C5.99,6.531,5.957,6.542,5.934,6.565
						C5.869,6.629,5.831,6.714,5.781,6.791C5.743,6.85,5.691,6.9,5.663,6.966C5.599,7.117,5.564,7.284,5.564,7.458v31.084
						c0,0.174,0.035,0.341,0.099,0.492c0.028,0.066,0.08,0.116,0.118,0.176c0.049,0.077,0.088,0.161,0.152,0.226
						c0.023,0.023,0.057,0.034,0.082,0.055c0.221,0.189,0.498,0.315,0.811,0.315h10.593h0.47c0.286,0,0.519,0.232,0.519,0.519v0.997
						v1.502c0,0.416,0.465,0.663,0.809,0.43l2.857-1.932c1.2-0.796,0.709-0.501,1.714-1.109c0.081-0.049,0.72-0.407,0.815-0.407
						h1.755h14.815c0.698,0,1.263-0.566,1.263-1.263v-2.939V7.458C42.436,6.761,41.871,6.195,41.173,6.195z"/>
				</defs>
				<clipPath id="SVGID_8_">
					<use xlink:href="#SVGID_7_"  style="overflow:visible;"/>
				</clipPath>
				<path style="clip-path:url(#SVGID_8_);fill:#4AE5E1;" d="M6.644,30.083l0.482-0.175V26.86l-1.561,0.581v11.1
					c0,0.035,0.017,0.064,0.02,0.099c-0.003-0.001-0.007-0.001-0.011-0.002c0.004,0.105,0.041,0.2,0.07,0.297
					c0.01,0.031,0.007,0.068,0.02,0.098c0.001,0.003,0.004,0.005,0.005,0.008c0.178,0.443,0.6,0.76,1.107,0.76
					c0.006,0,0.011-0.003,0.017-0.003c0.012,0,0.022,0.007,0.034,0.007h0.299v-5.623L6.077,31.3
					C5.898,30.807,6.152,30.263,6.644,30.083z"/>
			</g>
		</g>
	</g>
	<g>
		<path style="fill:none;" d="M41.173,6.195H6.827c-0.313,0-0.59,0.126-0.811,0.315C5.99,6.531,5.957,6.542,5.934,6.565
			C5.869,6.629,5.831,6.714,5.781,6.791C5.743,6.85,5.691,6.9,5.663,6.966C5.599,7.117,5.564,7.284,5.564,7.458v31.084
			c0,0.034,0.017,0.064,0.02,0.098c-0.003-0.001-0.007-0.001-0.01-0.002c0.004,0.094,0.039,0.176,0.062,0.263
			c0.013,0.043,0.009,0.092,0.027,0.133c0.002,0.004,0.005,0.007,0.007,0.011c0.179,0.441,0.6,0.757,1.106,0.757
			c0.005,0,0.009-0.003,0.014-0.003c0.013,0,0.023,0.007,0.036,0.007h10.593h0.47c0.286,0,0.519,0.232,0.519,0.519v0.997v1.502
			c0,0.416,0.465,0.663,0.809,0.43l2.857-1.932c1.2-0.796,0.709-0.501,1.714-1.109c0.081-0.049,0.72-0.407,0.815-0.407h1.755h14.815
			c0.698,0,1.263-0.566,1.263-1.263v-2.939V24v-4v-0.089v-0.246V7.458C42.436,6.761,41.871,6.195,41.173,6.195z"/>
		<g>
			<path style="fill:#C1C1C1;" d="M10.165,36.859l-1.876-5.153c-0.158-0.435,0.066-0.915,0.5-1.073
				c0.049-0.018,0.138-0.051,0.138-0.051l-1.573,0.573l2.449,6.727l1.433-0.522C10.802,37.516,10.323,37.293,10.165,36.859z"/>
		</g>
	</g>
	<g>
		<path style="fill:#30B8BF;" d="M37.056,21.9l-12.947,4.712c-0.539,0.196-1.135-0.082-1.331-0.621l-0.245-0.672
			c-0.196-0.539,0.082-1.135,0.621-1.331l12.947-4.712c0.539-0.196,1.135,0.082,1.331,0.621l0.245,0.672
			C37.873,21.108,37.595,21.704,37.056,21.9z"/>
	</g>
</g>
<path style="fill:#4AE5E1;" d="M6.898,39.184c0-0.154,0.037-0.297,0.094-0.428c-0.062,0.002-0.121,0.009-0.184,0.009
	c-0.444,0-0.859-0.048-1.234-0.127c0.027,0.646,0.55,1.164,1.203,1.164c0.106,0,0.201-0.033,0.298-0.059
	C6.972,39.58,6.898,39.395,6.898,39.184z"/>
</svg>
