<?xml version="1.0" encoding="iso-8859-1"?>
<!-- Generator: Adobe Illustrator 22.0.1, SVG Export Plug-In . SVG Version: 6.00 Build 0)  -->
<svg version="1.1" id="Layer_1" xmlns="http://www.w3.org/2000/svg" xmlns:xlink="http://www.w3.org/1999/xlink" x="0px" y="0px"
	 viewBox="0 0 48 48" style="enable-background:new 0 0 48 48;" xml:space="preserve">
<g>
	<circle style="opacity:0.2;fill:#00CCFF;enable-background:new    ;" cx="24" cy="24" r="24"/>
</g>
<g>
	<g>
		<path style="fill:#E5E5E5;" d="M41.868,39.76l-24.023,3.403c-0.205,0-0.372-0.167-0.372-0.372L14.97,18.447
			c0-0.204,0.168-0.372,0.372-0.372l26.34-0.139c0.205,0,0.372,0.167,0.372,0.372l0.186,21.081
			C42.241,39.593,42.073,39.76,41.868,39.76z"/>
		<path style="fill:#C1C1C1;" d="M42.893,18.307c0-0.204-0.168-0.372-0.372-0.372l-1.672,0.004c0.303,0.306,0.491,0.724,0.491,1.183
			l0.165,18.715c0.002,0.245-0.178,0.454-0.42,0.489l-23.724,3.377l0.112,1.088c0,0.204,0.168,0.372,0.372,0.372l24.862-3.403
			c0.205,0,0.372-0.167,0.372-0.372L42.893,18.307z"/>
		<path style="fill:#00555F;" d="M34.7,32.083c-1.061,0.551-1.964,1.266-2.724,1.931c-0.028,0.025-0.066,0.029-0.099,0.011
			c-1.05-0.572-2.261-1.051-3.767-1.49c-0.392-0.114-0.798,0.109-0.912,0.5c-0.114,0.39,0.109,0.798,0.5,0.912
			c1.565,0.458,2.773,0.952,3.804,1.557c0.165,0.096,0.334,0.143,0.501,0.143c0.229,0,0.453-0.089,0.65-0.265
			c0.753-0.676,1.665-1.441,2.725-1.993c0.361-0.187,0.501-0.631,0.313-0.991C35.505,32.036,35.061,31.894,34.7,32.083z"/>
		<path style="fill:#00555F;" d="M27.312,25.096c0-0.612-0.496-1.109-1.109-1.109h-0.282c-0.613,0-1.11,0.497-1.11,1.11v2.798
			c0,0.613,0.497,1.11,1.11,1.11h0.282c0.612,0,1.109-0.496,1.109-1.109V25.096z"/>
		<path style="fill:#00555F;" d="M35.414,23.772h-0.335c-0.536,0-0.973,0.437-0.973,0.973v2.748c0,0.536,0.437,0.973,0.973,0.973
			h0.335c0.536,0,0.973-0.437,0.973-0.973v-2.748C36.386,24.209,35.95,23.772,35.414,23.772z"/>
		<path style="fill:#00555F;" d="M12.43,19.134c0.024-0.538-0.144-1.03-0.478-1.394c-0.344-0.374-0.828-0.58-1.364-0.58l0,0
			c-0.584,0-1.078,0.243-1.32,0.388L9.231,17.57l-0.035,0.024l-4.034,2.745c-0.626,0.408-0.96,1.144-0.854,1.886l2.738,19.02
			c0.094,0.656,0.528,1.222,1.135,1.486l3.707,1.682c0.556,0.253,0.982,0.365,1.379,0.365c0.564,0,1.059-0.231,1.393-0.65
			c0.576-0.722,0.372-1.613,0.296-1.949C14.765,41.057,12.508,20.489,12.43,19.134z M13.266,43.308
			c-0.173,0-0.424-0.076-0.771-0.234l-3.721-1.688c-0.146-0.06-0.249-0.193-0.272-0.35l-2.738-19.02
			c-0.026-0.178,0.056-0.355,0.209-0.45l4.05-2.756c0.169-0.101,0.384-0.18,0.565-0.18c0.226,0,0.4,0.122,0.37,0.473
			c-0.043,0.507,2.429,22.814,2.563,23.404C13.64,43.029,13.597,43.308,13.266,43.308z"/>
		<path style="fill:#30B8BF;" d="M11.531,12.289c-0.226-0.124-0.335-0.379-0.271-0.629c0.155-0.606,0.473-1.651,0.974-2.409
			c0.466-0.705,1.18-1.396,1.666-1.827c0.221-0.196,0.549-0.199,0.766,0.001c1.528,1.407,3.445,3.427,4.148,4.785
			c0.09,0.174,0.014,0.381-0.15,0.488c-0.66,0.431-1.516,1.872-1.926,2.547c-0.087,0.143-0.246,0.227-0.409,0.187
			C15.104,15.132,13.196,13.202,11.531,12.289z"/>
		<path style="fill:#FFFFFF;" d="M18.999,41.769l-2.447-22.538c-0.028-0.27,0.025-0.546,0.16-0.816
			c0.065-0.131,0.154-0.242,0.248-0.348l-1.617,0.009c-0.205,0-0.372,0.167-0.372,0.372l2.502,24.345
			c0,0.204,0.168,0.372,0.372,0.372l1.727-0.245C19.259,42.653,19.08,42.377,18.999,41.769z"/>
		<g>
			<path style="fill:none;" d="M25.254,16.439c-0.313-1.782-1.857-3.145-3.727-3.145c-1.884,0-3.435,1.383-3.732,3.184
				c-0.003,0.019,0.007,0.035,0.015,0.052h7.394C25.237,16.51,25.261,16.479,25.254,16.439z"/>
		</g>
		<path style="fill:#30B8BF;" d="M21.527,13.295c1.87,0,3.415,1.363,3.727,3.145c0.01,0.058-0.037,0.113-0.095,0.113l-7.268,0.038
			c-0.059,0-0.106-0.054-0.096-0.112C18.091,14.677,19.643,13.295,21.527,13.295z"/>
		<path style="fill:#30B8BF;" d="M29.737,5.608c0.418-0.405,1.081-0.397,1.495,0.012c0.526,0.519,1.251,1.284,1.971,2.207
			c0.795,1.018,1.334,2.03,1.648,2.703c0.135,0.288,0.019,0.626-0.268,0.764c-1.503,0.719-5.883,2.707-8.549,2.786
			c-0.125,0.004-0.236-0.059-0.312-0.159c-0.406-0.533-0.914-0.979-1.492-1.324c-0.181-0.108-0.261-0.334-0.158-0.517
			C25.067,10.32,27.93,7.361,29.737,5.608z"/>
	</g>
	<path style="fill:#C1C1C1;" d="M13.266,43.308c-0.173,0-0.424-0.076-0.771-0.234l-3.721-1.688c-0.146-0.06-0.249-0.193-0.272-0.35
		l-2.738-19.02c-0.026-0.178,0.056-0.355,0.209-0.45l4.05-2.756c0.169-0.101,0.384-0.18,0.565-0.18c0.226,0,0.4,0.122,0.37,0.473
		c-0.043,0.507,2.429,22.814,2.563,23.404C13.64,43.029,13.597,43.308,13.266,43.308z"/>
	<path style="fill:#E5E5E5;" d="M9.491,41.629L6.753,21.255c-0.011-0.084,0.006-0.166,0.033-0.242l-0.813,0.553
		c-0.153,0.095-0.235,0.272-0.209,0.45l2.738,19.02c0.023,0.156,0.126,0.289,0.272,0.35l0.757,0.343
		C9.518,41.695,9.496,41.666,9.491,41.629z"/>
	<g>
		<path style="fill:#9B9B9B;" d="M13.521,42.507c-0.009-0.041-0.031-0.2-0.062-0.44c-0.054,0.039-0.125,0.062-0.222,0.062
			c-0.189,0-0.463-0.076-0.842-0.234l-4.01-1.666l0.116,0.807c0.023,0.156,0.126,0.289,0.272,0.35l3.721,1.688
			c0.348,0.158,0.599,0.234,0.771,0.234C13.597,43.308,13.64,43.029,13.521,42.507z"/>
	</g>
	<path style="fill:#00555F;" d="M42.845,29.688L42.845,29.688c-0.406,0.004-0.736,0.336-0.732,0.742l0.127,8.959
		c0,0.204-0.168,0.372-0.372,0.372l-24.023,3.403c-0.205,0-0.372-0.167-0.372-0.372L14.97,18.447c0-0.204,0.168-0.372,0.372-0.372
		l26.34-0.139c0.205,0,0.372,0.167,0.372,0.372l0.11,7.623c0.004,0.404,0.332,0.729,0.735,0.729h0.007
		c0.406-0.004,0.733-0.336,0.729-0.742l-0.11-7.622c0-1.003-0.827-1.83-1.843-1.83c-0.003,0-0.005,0-0.008,0l-14.932,0.079
		c-0.037-0.354-0.107-0.695-0.212-1.025c3.6-0.347,8.992-3.043,9.286-3.194l0.086-0.048c0.95-0.517,0.791-1.218,0.643-1.517
		c-0.028-0.078-0.691-1.928-2.181-3.838c-1.464-1.876-2.91-3.11-2.935-3.128c-0.462-0.448-1.137-0.531-1.677-0.206
		c-0.044,0.026-0.085,0.057-0.123,0.092c-0.633,0.588-5.932,5.563-7.112,8.245c-0.322-0.062-0.652-0.1-0.991-0.1
		c-0.394,0-0.774,0.055-1.143,0.138c-0.042,0.009-0.081-0.009-0.098-0.048c-1.052-2.422-4.813-5.75-5.34-6.206
		c-0.245-0.174-0.544-0.243-0.841-0.192c-0.254,0.043-0.367,0.142-0.65,0.357c-0.371,0.309-1.58,1.353-2.449,2.566
		c-1.102,1.54-1.29,3.353-1.304,3.43c-0.041,0.209-0.135,0.918,0.448,1.327c0.575,0.33,2.655,1.496,4.545,2.252v0.007
		c0.135,0.055,0.269,0.108,0.401,0.158c0.086,0.033,0.174,0.048,0.261,0.048c0.296,0,0.576-0.18,0.688-0.474
		c0.144-0.38-0.047-0.804-0.427-0.948c-0.227-0.086-0.466-0.189-0.704-0.292c-1.094-0.464-2.343-1.087-3.384-1.658
		c-0.226-0.124-0.335-0.379-0.271-0.629c0.155-0.606,0.473-1.651,0.974-2.409c0.466-0.705,1.181-1.395,1.666-1.826
		c0.221-0.196,0.549-0.199,0.766,0.001c1.528,1.407,3.445,3.427,4.148,4.785c0.09,0.174,0.014,0.381-0.15,0.488
		c-0.038,0.025-0.119,0.077-0.119,0.077c-1.125,0.74-1.925,1.905-2.178,3.3c0,0-0.026,0.164-0.027,0.168c0,0-0.02,0.203-0.034,0.354
		l-0.669,0.004c-0.802,0.004-1.601,0.395-1.958,1.113c-0.145,0.292-0.203,0.59-0.173,0.881l2.498,24.298
		c0.054,0.968,0.859,1.739,1.84,1.739c0.069,0,0.138-0.005,0.206-0.015l23.959-3.394c0.95-0.073,1.702-0.869,1.702-1.837
		l-0.127-8.972C43.58,30.013,43.249,29.688,42.845,29.688z M21.527,13.295c1.87,0,3.415,1.363,3.727,3.145
		c0.01,0.058-0.037,0.113-0.095,0.113l-7.268,0.038c-0.059,0-0.106-0.054-0.096-0.112C18.091,14.677,19.643,13.295,21.527,13.295z
		 M29.737,5.608c0.418-0.405,1.081-0.397,1.495,0.012c0.526,0.519,1.251,1.284,1.971,2.207c0.795,1.018,1.334,2.03,1.648,2.703
		c0.135,0.288,0.019,0.626-0.268,0.764c-1.503,0.719-5.883,2.707-8.549,2.786c-0.125,0.004-0.236-0.059-0.312-0.159
		c-0.406-0.533-0.914-0.979-1.492-1.324c-0.181-0.108-0.261-0.334-0.158-0.517C25.067,10.32,27.93,7.361,29.737,5.608z"/>
</g>
</svg>
