<?xml version="1.0" encoding="iso-8859-1"?>
<!-- Generator: Adobe Illustrator 22.0.1, SVG Export Plug-In . SVG Version: 6.00 Build 0)  -->
<svg version="1.1" id="Layer_1" xmlns="http://www.w3.org/2000/svg" xmlns:xlink="http://www.w3.org/1999/xlink" x="0px" y="0px"
	 viewBox="0 0 48 48" style="enable-background:new 0 0 48 48;" xml:space="preserve">
<g>
	<circle style="opacity:0.2;fill:#00CCFF;enable-background:new    ;" cx="24" cy="24" r="24"/>
</g>
<g>
	<path style="fill:#E5E5E5;" d="M46.898,7.117H1.749c-0.125,0-0.227,0.1-0.227,0.224v33.317c0,0.123,0.102,0.224,0.227,0.224h0.464
		c0.076,0,0.147-0.037,0.189-0.1l2.071-2.339c0.329-0.487,0.88-0.777,1.473-0.777h35.757c0.426,0,2.571,0,2.997,0h2.198
		c0.125,0,0.227-0.1,0.227-0.224V7.341C47.125,7.218,47.023,7.117,46.898,7.117z"/>
</g>
<g>
	<path style="fill:#30B8BF;" d="M22.934,29.756l-7.892-3.312c-0.148-0.064-0.244-0.209-0.244-0.37v-7.305
		c0-0.147,0.081-0.283,0.211-0.353l7.899-4.054c0.267-0.143,0.59,0.05,0.59,0.353v14.669C23.498,29.675,23.201,29.871,22.934,29.756
		z"/>
	<path style="fill:#4AE5E1;" d="M15.358,27.049h-0.119c-0.242,0-0.441-0.198-0.441-0.441V18.26c0-0.242,0.198-0.441,0.441-0.441
		h0.119c0.242,0,0.441,0.198,0.441,0.441v8.348C15.799,26.85,15.6,27.049,15.358,27.049z"/>
	<path style="fill:#FFFFFF;" d="M13.326,25.616c0,0.222-0.182,0.404-0.404,0.404H9.403c-0.222,0-0.404-0.182-0.404-0.404v-6.364
		c0-0.222,0.182-0.404,0.404-0.404h3.518c0.222,0,0.404,0.182,0.404,0.404L13.326,25.616L13.326,25.616z"/>
	<g>
		<path style="fill:#00555F;" d="M24.381,14.354c0-0.47-0.254-0.906-0.664-1.138c-0.409-0.232-0.914-0.225-1.318,0.017l-8.542,4.143
			H9.216c-0.933,0-1.689,0.756-1.689,1.689v6.737c0,0.933,0.756,1.689,1.689,1.689h4.641l8.542,3.174
			c0.207,0.124,0.44,0.186,0.673,0.186c0.222,0,0.445-0.056,0.644-0.17c0.409-0.232,0.664-0.668,0.664-1.138V14.354H24.381z
			 M13.326,25.616c0,0.222-0.182,0.404-0.404,0.404H9.403c-0.222,0-0.404-0.182-0.404-0.404v-6.364c0-0.222,0.182-0.404,0.404-0.404
			h3.518c0.222,0,0.404,0.182,0.404,0.404L13.326,25.616L13.326,25.616z M22.908,28.494v0.145c0,0.291-0.297,0.486-0.564,0.372
			l-7.302-2.567c-0.148-0.064-0.244-0.209-0.244-0.37v-7.305c0-0.147,0.081-0.283,0.211-0.353l7.309-3.455
			c0.267-0.143,0.59,0.05,0.59,0.353v7.083v0.043v1.01V28.494z"/>
		<g>
			<path style="fill:none;stroke:#00555F;stroke-width:1.5;stroke-linecap:round;stroke-linejoin:round;stroke-miterlimit:10;" d="
				M35.491,30.09c4.711-3.768,4.711-12.309,0-16.077"/>
			<path style="fill:none;stroke:#00555F;stroke-width:1.5;stroke-linecap:round;stroke-linejoin:round;stroke-miterlimit:10;" d="
				M32.295,27.506c3.028-2.706,3.003-8.199,0-10.909"/>
			<path style="fill:none;stroke:#00555F;stroke-width:1.5;stroke-linecap:round;stroke-linejoin:round;stroke-miterlimit:10;" d="
				M28.628,25.114c1.522-1.652,1.5-4.469,0-6.124"/>
		</g>
	</g>
</g>
<path style="fill:#FFFFFF;" d="M2.272,41.599L2.272,41.599c-0.412,0-0.75-0.337-0.75-0.75V7.151c0-0.412,0.337-0.75,0.75-0.75l0,0
	c0.412,0,0.75,0.337,0.75,0.75v33.698C3.022,41.261,2.684,41.599,2.272,41.599z"/>
<g>
	<path style="fill:#C1C1C1;" d="M43.333,34.784L7.312,34.78c-0.585,0-1.128,0.291-1.453,0.777c0,0-2.969,4.474-2.959,4.459
		l1.368-2.052c0.324-0.487,1.067-0.809,1.652-0.809l39.337,0.004c0.698,0,1.263-0.566,1.263-1.263l-0.001-3.854
		C46.517,32.736,46,34.784,43.333,34.784z"/>
</g>
<path style="fill:#00555F;" d="M46.478,20.173c0,0.421,0.34,0.761,0.761,0.761S48,20.594,48,20.173v-9.028V8.374
	c0-1.535-1.244-2.779-2.779-2.779H2.779C1.244,5.595,0,6.839,0,8.374v32.284c0,0.963,0.783,1.746,1.746,1.746h0.458
	c0.585,0,1.128-0.291,1.453-0.777l2.042-3.062c0.042-0.062,0.111-0.1,0.186-0.1l39.337-0.002c1.535,0,2.779-1.244,2.779-2.779
	V24.695c0-0.421-0.34-0.761-0.761-0.761s-0.761,0.34-0.761,0.761l0.006,10.989c0,0.698-0.566,1.263-1.263,1.263L5.885,36.943
	c-0.585,0-1.128,0.291-1.453,0.777L2.39,40.782c-0.042,0.062-0.111,0.1-0.186,0.1H1.746c-0.123,0-0.224-0.1-0.224-0.224v-28.9
	c-0.002,0-0.006-3.384-0.006-3.384c0-0.698,0.566-1.263,1.263-1.263h42.442c0.698,0,1.263,0.566,1.263,1.263L46.478,20.173z"/>
</svg>
