<?xml version="1.0" encoding="iso-8859-1"?>
<!-- Generator: Adobe Illustrator 22.0.1, SVG Export Plug-In . SVG Version: 6.00 Build 0)  -->
<svg version="1.1" id="Layer_1" xmlns="http://www.w3.org/2000/svg" xmlns:xlink="http://www.w3.org/1999/xlink" x="0px" y="0px"
	 viewBox="0 0 48 48" style="enable-background:new 0 0 48 48;" xml:space="preserve">
<g>
	<circle style="opacity:0.2;fill:#00CCFF;enable-background:new    ;" cx="24" cy="24" r="24"/>
</g>
<path style="fill:#E5E5E5;" d="M45.662,32.812H2.4c-0.22,0-0.4-0.18-0.4-0.4V6.963c0-0.22,0.18-0.4,0.4-0.4h43.262
	c0.22,0,0.4,0.18,0.4,0.4v25.45C46.062,32.632,45.882,32.812,45.662,32.812z"/>
<path style="fill:#FFFFFF;" d="M7.725,33.062H2.4c-0.22,0-0.4-0.18-0.4-0.4v-25.7c0-0.22,0.18-0.4,0.4-0.4h5.325
	c0.22,0,0.4,0.18,0.4,0.4v25.7C8.125,32.882,7.945,33.062,7.725,33.062z"/>
<path style="fill:#FFFFFF;" d="M45.952,33.062h-5.629c-0.226,0-0.41-0.185-0.41-0.41V6.973c0-0.226,0.185-0.41,0.41-0.41h5.629
	c0.226,0,0.41,0.185,0.41,0.41v25.679C46.363,32.878,46.178,33.062,45.952,33.062z"/>
<g>
	<path style="fill:#00555F;" d="M29.605,18.225L29.605,18.225l-4.627-2.67c-0.018-0.012-0.038-0.024-0.057-0.035l-4.602-2.657
		c-0.592-0.341-1.33-0.343-1.925,0c-0.594,0.343-0.962,0.982-0.962,1.667v10.724c0,0.686,0.369,1.325,0.963,1.668
		c0.297,0.171,0.629,0.257,0.962,0.257s0.666-0.086,0.963-0.258l9.285-5.362c0.593-0.343,0.962-0.982,0.962-1.667
		S30.199,18.568,29.605,18.225z M28.948,20.422l-9.285,5.362c-0.408,0.236-0.917-0.059-0.917-0.529V14.53
		c0-0.471,0.51-0.765,0.917-0.53l9.285,5.362C29.355,19.598,29.355,20.186,28.948,20.422z"/>
	<g>
		<path style="fill:#30B8BF;" d="M28.948,19.362L19.663,14c-0.408-0.235-0.917,0.059-0.917,0.53v10.724
			c0,0.471,0.51,0.765,0.917,0.529l9.285-5.362C29.355,20.186,29.355,19.598,28.948,19.362z"/>
	</g>
</g>
<path style="fill:#00555F;" d="M47.136,21.774c0-0.428-0.346-0.774-0.774-0.774c-0.428,0-0.774,0.346-0.774,0.774v9.328
	c0,0.792-0.642,1.433-1.433,1.433h-3.814V30.78h-0.005v-2.074h3.809c0.41,0,0.742-0.341,0.742-0.762s-0.332-0.762-0.742-0.762
	h-3.809v-0.005v-3.87V23.3h3.809c0.41,0,0.742-0.341,0.742-0.762s-0.332-0.762-0.742-0.762h-3.809v-0.012v-3.87l0,0h3.809
	c0.41,0,0.742-0.341,0.742-0.762s-0.332-0.762-0.742-0.762h-3.809v-0.019v-3.863h3.809c0.41,0,0.742-0.341,0.742-0.762
	s-0.332-0.762-0.742-0.762h-3.809v-0.026v-2V7.125h3.843c0.792,0,1.433,0.642,1.433,1.433l-0.024,8.668
	c0,0.428,0.346,0.774,0.774,0.774c0.428,0,0.774-0.346,0.774-0.774l0.001-8.668c-0.003-1.63-1.323-2.95-2.953-2.953v-0.01H3.816
	C2.182,5.598,0.86,6.924,0.863,8.558l0,0v22.545c0.003,1.63,1.323,2.95,2.953,2.953H44.19c1.628-0.005,2.945-1.325,2.948-2.953
	L47.136,21.774z M3.816,32.498c-0.792,0-1.433-0.642-1.433-1.433v-2.362h5.252l0.024,3.795H3.816z M7.658,27.164H2.411v-3.87h5.252
	L7.658,27.164z M7.658,21.751H2.411v-3.87h5.252L7.658,21.751z M7.658,16.338H2.411v-3.87h5.252L7.658,16.338z M7.658,10.924H2.411
	V8.558c0-0.792,0.642-1.433,1.433-1.433h3.843L7.658,10.924z M38.803,32.469H9.197V7.125h29.606V32.469z"/>
<g>
	<g>
		<path style="fill:#00555F;" d="M46.377,38.542H32.442c-0.339-1.032-1.302-1.826-2.389-1.825h-2.948
			c-1.087-0.002-2.051,0.792-2.389,1.825l-13.383,0.002c-0.413,0-0.747,0.343-0.747,0.768c0,0.424,0.334,0.768,0.747,0.768
			l13.393,0.002c0.337,1.033,1.302,1.828,2.389,1.826h2.957c1.086,0,2.05-0.793,2.389-1.826h13.916c0.425,0,0.769-0.344,0.769-0.769
			C47.147,38.886,46.802,38.542,46.377,38.542z M30.067,40.529h-2.956c-0.67,0-1.218-0.548-1.218-1.218s0.548-1.218,1.218-1.218
			h2.956c0.67,0,1.218,0.548,1.218,1.218S30.737,40.529,30.067,40.529z"/>
		<path style="fill:#00555F;" d="M7.752,38.542h-6.13c-0.413,0-0.747,0.343-0.747,0.768s0.334,0.768,0.747,0.768h6.13
			c0.413,0,0.747-0.343,0.747-0.768S8.165,38.542,7.752,38.542z"/>
	</g>
	<path style="fill:#30B8BF;" d="M30.067,40.529h-2.955c-0.67,0-1.218-0.548-1.218-1.218l0,0c0-0.67,0.548-1.218,1.218-1.218h2.955
		c0.67,0,1.218,0.548,1.218,1.218l0,0C31.285,39.981,30.737,40.529,30.067,40.529z"/>
</g>
<path style="fill:#C1C1C1;" d="M37.754,30.788H9.197v1.681h29.606v-2.73C38.803,30.316,38.331,30.788,37.754,30.788z"/>
</svg>
