<?xml version="1.0" encoding="iso-8859-1"?>
<!-- Generator: Adobe Illustrator 22.0.1, SVG Export Plug-In . SVG Version: 6.00 Build 0)  -->
<svg version="1.1" id="Layer_1" xmlns="http://www.w3.org/2000/svg" xmlns:xlink="http://www.w3.org/1999/xlink" x="0px" y="0px"
	 viewBox="0 0 48 48" style="enable-background:new 0 0 48 48;" xml:space="preserve">
<g>
	<circle style="opacity:0.2;fill:#00CCFF;enable-background:new    ;" cx="24" cy="24" r="24"/>
</g>
<g>
	<path style="fill:#E5E5E5;" d="M7.328,11.677l-0.972,2.62c-0.073,0.196,0.072,0.404,0.281,0.404h34.726
		c0.209,0,0.354-0.208,0.281-0.404l-0.972-2.62c-0.044-0.118-0.156-0.196-0.281-0.196H7.609C7.484,11.481,7.372,11.559,7.328,11.677
		z"/>
	<path style="fill:#E5E5E5;" d="M43.208,42.886H4.792c-0.458,0-0.822-0.385-0.797-0.842l1.363-25.109
		c0.023-0.423,0.373-0.754,0.797-0.754h35.689c0.424,0,0.774,0.331,0.797,0.754l1.363,25.109
		C44.03,42.501,43.666,42.886,43.208,42.886z"/>
	<path style="fill:#FFFFFF;" d="M5.038,42.043l1.363-25.109c0.023-0.423,0.373-0.754,0.797-0.754H6.155
		c-0.424,0-0.774,0.331-0.797,0.754L3.995,42.043c-0.025,0.457,0.339,0.842,0.797,0.842h1.042
		C5.376,42.886,5.012,42.501,5.038,42.043z"/>
	<path style="fill:#00555F;" d="M29.736,22.726c-1.265,0-2.295-1.029-2.295-2.295c0-1.265,1.029-2.295,2.295-2.295
		c1.265,0,2.295,1.029,2.295,2.295C32.031,21.697,31.002,22.726,29.736,22.726z M29.736,19.667c-0.422,0-0.765,0.343-0.765,0.765
		c0,0.422,0.343,0.765,0.765,0.765s0.765-0.343,0.765-0.765C30.501,20.01,30.158,19.667,29.736,19.667z"/>
	<path style="fill:#00555F;" d="M18.264,22.726c-1.265,0-2.295-1.029-2.295-2.295c0-1.265,1.029-2.295,2.295-2.295
		s2.295,1.029,2.295,2.295C20.558,21.697,19.529,22.726,18.264,22.726z M18.264,19.667c-0.422,0-0.765,0.343-0.765,0.765
		c0,0.422,0.343,0.765,0.765,0.765s0.765-0.343,0.765-0.765C19.029,20.01,18.685,19.667,18.264,19.667z"/>
	<path style="fill:#00555F;" d="M29.677,19.667"/>
	<circle style="fill:#FFFFFF;" cx="29.736" cy="20.432" r="0.765"/>
	<circle style="fill:#FFFFFF;" cx="18.264" cy="20.432" r="0.765"/>
	<g>
		<path style="fill:#C1C1C1;" d="M24,33.503c-3.585,0-6.501-2.916-6.501-6.501v-4.207c0-0.422,0.343-0.765,0.765-0.765
			c0.422,0,0.765,0.343,0.765,0.765v4.207c0,2.741,2.23,4.972,4.972,4.972s4.972-2.23,4.972-4.972c0,0-0.059-4.102-0.059-4.207
			c0-0.422,0.343-0.765,0.765-0.765h0.059c0.422,0,0.765,0.343,0.765,0.765v4.207C30.501,30.587,27.585,33.503,24,33.503z"/>
	</g>
	<g>
		<path style="fill:#00555F;" d="M24,32.436c-3.585,0-6.501-2.916-6.501-6.501v-4.207c0-0.422,0.343-0.765,0.765-0.765
			c0.422,0,0.765,0.343,0.765,0.765v4.207c0,2.741,2.23,4.972,4.972,4.972s4.972-2.23,4.972-4.972c0,0-0.059-4.102-0.059-4.207
			c0-0.422,0.343-0.765,0.765-0.765h0.059c0.422,0,0.765,0.343,0.765,0.765v4.207C30.501,29.52,27.585,32.436,24,32.436z"/>
	</g>
</g>
<g>
	<path style="fill:#C1C1C1;" d="M3.995,42.043c-0.006,0.114,0.012,0.224,0.049,0.325C4.007,42.268,3.989,42.158,3.995,42.043
		L3.995,42.043z"/>
	<path style="fill:#C1C1C1;" d="M43.943,40.908c-0.119,0.29-0.4,0.498-0.735,0.498H5.072l-0.035,0.637
		c-0.025,0.457,0.339,0.842,0.797,0.842H4.792c-0.229,0-0.435-0.096-0.58-0.25c0.145,0.153,0.351,0.25,0.58,0.25h38.416
		c0.458,0,0.822-0.385,0.797-0.842L43.943,40.908z"/>
</g>
<g>
	<path style="fill:#30B8BF;" d="M16.729,14.701l-0.406-1.686c-0.066-0.272,0.105-0.545,0.379-0.606l10.857-2.39
		c0.266-0.059,0.53,0.107,0.594,0.372l1.036,4.31H16.729z"/>
	<path style="fill:#30B8BF;" d="M22.749,5.313l0.494,4.181l-8.139,1.717c-0.411,0.099-0.664,0.512-0.565,0.922l0.618,2.568h-4.729
		l-0.95-8.039C9.444,6.384,9.646,6.132,9.926,6.104l12.273-1.232C22.472,4.844,22.716,5.04,22.749,5.313z"/>
	<path style="fill:#4AE5E1;" d="M17.282,13.182c-0.065-0.272,0.105-0.545,0.379-0.606l10.44-2.298
		c-0.103-0.194-0.318-0.308-0.542-0.258l-10.857,2.39c-0.274,0.06-0.444,0.333-0.379,0.606l0.406,1.686h0.918L17.282,13.182z"/>
	<path style="fill:#4AE5E1;" d="M10.477,6.468c-0.02-0.17,0.048-0.325,0.161-0.436L9.926,6.104c-0.28,0.028-0.482,0.28-0.449,0.559
		l0.95,8.039h1.023L10.477,6.468z"/>
	<path style="fill:#30B8BF;" d="M38.001,8.845l-9.952-1.902c-0.264-0.05-0.521,0.116-0.582,0.378L27.18,8.547l1.245-0.299
		c0.198-0.047,0.405-0.014,0.578,0.091c0.173,0.106,0.297,0.276,0.344,0.473l1.416,5.889h5.962h0.442h0.84l0.155-0.687
		c-0.013-0.002-0.025-0.001-0.038-0.004c-0.387-0.09-0.624-0.46-0.573-0.846c0.002-0.024-0.004-0.048,0.002-0.073l0.843-3.642
		c0.011-0.049,0.007-0.096,0.004-0.144c0,0,0,0-0.001,0C38.383,9.084,38.23,8.889,38.001,8.845z"/>
</g>
<path style="fill:#00555F;" d="M44.182,16.008c-0.014-0.255-0.113-0.478-0.244-0.677l-2.25-5.009
	c-0.138-0.231-0.387-0.371-0.656-0.371h-1.181l0.326-1.404c0.046-0.197,0.012-0.405-0.095-0.577
	c-0.107-0.173-0.278-0.295-0.476-0.341L27.18,5.189c-0.197-0.046-0.405-0.012-0.578,0.095c-0.172,0.107-0.295,0.278-0.341,0.476
	l-0.733,3.132l-0.796,0.177L24.12,3.883c-0.024-0.202-0.127-0.385-0.286-0.511S23.473,3.19,23.27,3.213L8.478,4.726
	c-0.419,0.05-0.719,0.43-0.67,0.849l0.517,4.376H6.968c-0.269,0-0.518,0.141-0.656,0.371l-2.25,5.009
	c-0.131,0.199-0.23,0.422-0.244,0.677L2.381,42.905c-0.043,0.793,0.577,1.46,1.358,1.46l5.585,0c0.408,0,0.74-0.331,0.74-0.74
	s-0.331-0.74-0.74-0.74H4.899c-0.516,0-0.926-0.433-0.898-0.948l1.357-25.003c0.023-0.423,0.373-0.754,0.797-0.754h35.689
	c0.424,0,0.774,0.331,0.797,0.754l1.357,25.002c0.028,0.516-0.383,0.949-0.899,0.949H13.802c-0.408,0-0.74,0.331-0.74,0.74
	s0.331,0.74,0.74,0.74l2.51,0h27.949c0.781,0,1.401-0.667,1.358-1.46L44.182,16.008z M6.637,14.701
	c-0.209,0-0.354-0.208-0.281-0.405l0.973-2.621c0.043-0.117,0.155-0.195,0.28-0.195h0.898l0.381,3.22H6.637z M10.427,14.701
	l-0.95-8.039C9.444,6.383,9.646,6.132,9.926,6.104l12.273-1.232c0.273-0.027,0.517,0.169,0.549,0.441l0.483,4.09l-8.129,1.808
	c-0.411,0.099-0.664,0.512-0.565,0.922l0.618,2.568H10.427z M16.729,14.701l-0.406-1.688c-0.065-0.271,0.105-0.544,0.378-0.604
	l10.86-2.391c0.265-0.058,0.529,0.106,0.592,0.37l1.037,4.312H16.729z M41.361,14.701H30.763l-1.416-5.889
	c-0.047-0.197-0.171-0.367-0.344-0.473c-0.173-0.105-0.38-0.138-0.578-0.091l-1.239,0.276l0.282-1.205
	c0.061-0.26,0.316-0.426,0.579-0.376l9.957,1.903c0.278,0.053,0.456,0.327,0.392,0.603l-0.843,3.642
	c-0.096,0.411,0.159,0.823,0.571,0.919c0.059,0.014,0.117,0.02,0.175,0.02c0.347,0,0.662-0.238,0.743-0.59l0.454-1.958h0.895
	c0.125,0,0.238,0.078,0.281,0.196l0.972,2.618C41.716,14.492,41.571,14.701,41.361,14.701z"/>
</svg>
