<?xml version="1.0" encoding="iso-8859-1"?>
<!-- Generator: Adobe Illustrator 22.0.1, SVG Export Plug-In . SVG Version: 6.00 Build 0)  -->
<svg version="1.1" id="Layer_1" xmlns="http://www.w3.org/2000/svg" xmlns:xlink="http://www.w3.org/1999/xlink" x="0px" y="0px"
	 viewBox="0 0 48 48" style="enable-background:new 0 0 48 48;" xml:space="preserve">
<g>
	<circle style="opacity:0.2;fill:#00CCFF;enable-background:new    ;" cx="24" cy="24" r="24"/>
</g>
<path style="fill:#FFFFFF;" d="M36.359,33.125c-0.116-0.056-0.191-0.191-0.191-0.343V21.603c-0.521-0.06-0.957-0.06-1.484,0.003
	v11.146c0,0.16-0.079,0.299-0.2,0.356"/>
<g>
	<g>
		<g>
			<path style="fill:#00555F;" d="M28.126,4.141H27.25c-0.439,0-0.795,0.356-0.795,0.795s0.356,0.795,0.795,0.795h0.876
				c0.59,0,1.07,0.478,1.07,1.064v3.383H3.979V6.795c0-0.586,0.48-1.064,1.07-1.064H22.66c0.439,0,0.795-0.356,0.795-0.795
				s-0.356-0.795-0.795-0.795H5.049c-1.467,0-2.66,1.19-2.66,2.654v34.41c0,1.464,1.193,2.654,2.66,2.654h23.077
				c1.467,0,2.66-1.19,2.66-2.654V6.795C30.786,5.331,29.593,4.141,28.126,4.141z M7.764,36.795h21.432v4.41
				c0,0.587-0.48,1.064-1.07,1.064H5.049c-0.59,0-1.07-0.478-1.07-1.064V11.768h25.217v23.437H7.764
				c-0.439,0-0.795,0.355-0.795,0.795S7.325,36.795,7.764,36.795z"/>
			<g>
				<path style="fill:#C1C1C1;" d="M22.66,5.731H5.049c-0.59,0-1.07,0.478-1.07,1.064v3.383h25.217V6.795
					c0-0.586-0.48-1.064-1.07-1.064H27.25c-0.439,0-0.795-0.356-0.795-0.795v0h-3v0C23.455,5.375,23.099,5.731,22.66,5.731z"/>
				<g>
					<path style="fill:#C1C1C1;" d="M3.979,41.205c0,0.587,0.48,1.064,1.07,1.064h23.077c0.59,0,1.07-0.478,1.07-1.064v-4.41H7.764
						c-0.439,0-0.795-0.355-0.795-0.795h-2.99V41.205z"/>
					<path style="fill:#E5E5E5;" d="M7.764,35.205h21.432V11.768H3.979V36h2.99C6.969,35.56,7.325,35.205,7.764,35.205z"/>
					<rect x="3.979" y="11.768" style="fill:#FFFFFF;" width="1.59" height="24.232"/>
				</g>
			</g>
		</g>
		<path style="fill:#00555F;" d="M20.625,20.278H7.743C7.333,20.278,7,20.617,7,21.036c0,0.419,0.333,0.758,0.743,0.758h12.882
			c0.41,0,0.743-0.339,0.743-0.758S21.035,20.278,20.625,20.278z"/>
		<path style="fill:#00555F;" d="M18.581,15.247H7.743C7.333,15.247,7,15.586,7,16.005s0.333,0.758,0.743,0.758h10.838
			c0.41,0,0.743-0.339,0.743-0.758S18.991,15.247,18.581,15.247z"/>
		<path style="fill:#00555F;" d="M7,26.066c0-0.419,0.33-0.758,0.738-0.758h7.966c0.408,0,0.738,0.339,0.738,0.758
			s-0.33,0.758-0.738,0.758H7.738C7.33,26.824,7,26.484,7,26.066z"/>
		<path style="fill:#00555F;" d="M16.587,38.223c-0.738,0-1.338,0.6-1.338,1.338c0,0.738,0.6,1.338,1.338,1.338
			c0.738,0,1.338-0.6,1.338-1.338C17.925,38.823,17.325,38.223,16.587,38.223z"/>
	</g>
	<g>
		<path style="fill:#00555F;" d="M35.754,18.81c-6.203,0-11.249,5.047-11.249,11.25c0,6.203,5.047,11.249,11.249,11.249
			c6.204,0,11.251-5.047,11.251-11.249C47.005,23.857,41.958,18.81,35.754,18.81z M35.754,39.66c-5.293,0-9.599-4.306-9.599-9.599
			c0-5.293,4.306-9.6,9.599-9.6c5.293,0,9.601,4.307,9.601,9.6C45.355,35.354,41.048,39.66,35.754,39.66z"/>
		<path style="fill:#30B8BF;" d="M35.754,20.46c-5.293,0-9.599,4.307-9.599,9.6s4.306,9.599,9.599,9.599s9.601-4.306,9.601-9.599
			S41.048,20.46,35.754,20.46z"/>
		<path style="fill:#00555F;" d="M36.122,17.765h-0.734c-0.208,0-0.378-0.17-0.378-0.378v-2.528c0-0.208,0.17-0.378,0.378-0.378
			h0.734c0.208,0,0.378,0.17,0.378,0.378v2.528C36.5,17.595,36.33,17.765,36.122,17.765z"/>
		<path style="fill:#00555F;" d="M36.122,13.029h-0.734c-0.208,0-0.378-0.17-0.378-0.378v-2.528c0-0.208,0.17-0.378,0.378-0.378
			h0.734c0.208,0,0.378,0.17,0.378,0.378v2.528C36.5,12.859,36.33,13.029,36.122,13.029z"/>
		<path style="fill:#FFFFFF;" d="M35.754,20.46c-0.252,0-0.5,0.019-0.748,0.038v11.824l-3.308-3.632
			c-0.046-0.05-0.109-0.076-0.173-0.076c-0.056,0-0.112,0.02-0.156,0.061l-0.754,0.684c-0.047,0.042-0.074,0.1-0.077,0.162
			c-0.003,0.062,0.02,0.123,0.062,0.169l4.64,5.102l0.001-0.001l0.017,0.019c0.127,0.14,0.301,0.217,0.489,0.217h0.001h0.006h0.006
			h0.001c0.188,0,0.362-0.077,0.489-0.217l0.017-0.019l0.001,0.001l4.64-5.102c0.042-0.046,0.064-0.106,0.062-0.169
			c-0.003-0.062-0.03-0.12-0.077-0.162l-0.754-0.684c-0.044-0.041-0.101-0.061-0.156-0.061c-0.063,0-0.127,0.026-0.173,0.076
			l-3.308,3.632V20.498C36.255,20.479,36.007,20.46,35.754,20.46z"/>
	</g>
</g>
</svg>
