<?xml version="1.0" encoding="utf-8"?>
<!-- Generator: Adobe Illustrator 22.0.1, SVG Export Plug-In . SVG Version: 6.00 Build 0)  -->
<svg version="1.1" id="Layer_1" xmlns="http://www.w3.org/2000/svg" xmlns:xlink="http://www.w3.org/1999/xlink" x="0px" y="0px"
	 viewBox="0 0 48 48" style="enable-background:new 0 0 48 48;" xml:space="preserve">
<style type="text/css">
	.st0{opacity:0.2;fill:#00CCFF;enable-background:new    ;}
	.st1{fill:#C1C1C1;}
	.st2{fill:#9B9B9B;}
	.st3{fill:#E5E5E5;}
	.st4{fill:#FFFFFF;}
	.st5{fill:#30B8BF;}
	.st6{fill:none;stroke:#00555F;stroke-width:1.5;stroke-miterlimit:10;}
	.st7{fill:none;stroke:#00555F;stroke-width:1.5;stroke-linecap:round;stroke-miterlimit:10;}
	.st8{fill:none;stroke:#00555F;stroke-width:1.2;stroke-linecap:round;stroke-linejoin:round;stroke-miterlimit:10;}
	.st9{fill:#00555F;}
	.st10{fill:#4AE5E1;stroke:#00555F;stroke-width:1.2;stroke-linecap:round;stroke-linejoin:round;stroke-miterlimit:10;}
	.st11{fill:none;stroke:#00555F;stroke-width:1.5;stroke-linecap:round;stroke-linejoin:round;stroke-miterlimit:10;}
	.st12{fill:none;}
</style>
<g>
	<circle class="st0" cx="24" cy="24" r="24"/>
</g>
<g>
	<g>
		<path class="st1" d="M2,45.5l32.9-17.8c0.2,0,0.3,0.1,0.3,0.3l0.2,17.5C35.4,45.6,2,45.5,2,45.5z"/>
		<path class="st2" d="M35.3,28.3L35.3,28.3c0-0.2-0.2-0.6-0.4-0.6c0,0-33.1,17.8-32.9,17.8l8.6,0c0.4,0,0.8-0.1,1.1-0.3L35.3,28.3z
			"/>
		<path class="st3" d="M0.7,44.1l0.9-18c0-0.7,0.9-1.2,1.6-1.2l32.2,0.4c1,0,1.4,1.6,0.6,2.1L2,45.5C1.5,45.7,0.7,44.6,0.7,44.1z"/>
		<path class="st4" d="M2.5,44.1l0.9-18c0-0.6,0.7-1.1,1.3-1.2l-1.6,0c-0.7,0-1.5,0.5-1.6,1.2l-0.9,18c0,0.5,0.9,1.7,1.4,1.4L3,45
			C2.7,44.7,2.5,44.3,2.5,44.1z"/>
		<path class="st5" d="M2.6,24.6c0,0,0-2.3,0-3.5C2.6,12,10,4.7,19,4.7c9.1,0,16.4,7.3,16.4,16.4c0,1.2,0,3.5,0,3.5H2.6z"/>
		<path class="st4" d="M30.3,24.8c0.3-1,0.4-2,0.4-3c0-3.4-1.5-6.5-3.8-8.7H10.7C8.4,15.2,7,18.3,7,21.7c0,1.1,0.2,2.1,0.4,3H30.3z"
			/>
		<g>
			<path class="st6" d="M35.2,24.9v-3.4c0-3.2-0.9-6.1-2.4-8.6"/>
			<path class="st6" d="M4.9,12.9c-1.5,2.5-2.4,5.4-2.4,8.5v3.4"/>
			<path class="st7" d="M30.1,9c-0.1-0.1-0.2-0.2-0.3-0.2c-0.6-0.5-1.2-0.9-1.9-1.4c-2.6-1.6-5.8-2.6-9.1-2.6
				c-4.3,0-8.3,1.6-11.3,4.2"/>
			<path class="st8" d="M30.4,24.5v-3c0-3.1-1.3-6-3.3-8.1c-0.1-0.1-0.2-0.2-0.3-0.3"/>
			<path class="st8" d="M10.6,13.3c-2.1,2.1-3.4,5-3.4,8.2v2.9"/>
			<g>
				<path class="st9" d="M14.1,20.8c0,0.8-0.7,1.5-1.5,1.5c-0.8,0-1.5-0.7-1.5-1.5c0-0.8,0.7-1.5,1.5-1.5
					C13.4,19.3,14.1,19.9,14.1,20.8z"/>
				<path class="st9" d="M26.2,20.8c0,0.8-0.7,1.5-1.5,1.5c-0.8,0-1.5-0.7-1.5-1.5c0-0.8,0.7-1.5,1.5-1.5
					C25.5,19.3,26.2,19.9,26.2,20.8z"/>
				<path class="st9" d="M27.6,15.8c-0.1-0.1-0.2-0.2-0.3-0.3c-0.1-0.1-0.3-0.1-0.4,0l-5.1,2.2c-0.3,0.1-0.4,0.5-0.3,0.7
					c0.1,0.2,0.3,0.3,0.5,0.3c0.1,0,0.2,0,0.2,0l5.1-2.2c0.1-0.1,0.2-0.2,0.3-0.3C27.6,16.1,27.6,15.9,27.6,15.8z"/>
				<path class="st9" d="M15.9,18c-0.1-0.1-0.2-0.2-0.3-0.3l-5-2.1c-0.1-0.1-0.3-0.1-0.4,0c-0.1,0.1-0.2,0.2-0.3,0.3
					c-0.1,0.3,0,0.6,0.3,0.7l5,2.1c0.1,0,0.1,0,0.2,0c0.2,0,0.4-0.1,0.5-0.3C15.9,18.3,15.9,18.2,15.9,18z"/>
			</g>
			<path class="st10" d="M26.8,13h5c1.1,0,1.9-0.9,1.9-1.9c0,0,0,0,0-0.1c0-1-0.9-1.9-1.9-1.9H5.9C4.9,9.2,4,10,4,11c0,0,0,0,0,0.1
				C4,12.2,4.8,13,5.9,13H24"/>
			<path class="st11" d="M29.6,45.7h4.7c0.7,0,1.2-0.5,1.2-1.2l-0.2-11"/>
			<path class="st11" d="M6,45.7h20"/>
			<line class="st10" x1="35.3" y1="30.8" x2="35.2" y2="27.9"/>
			<path class="st12" d="M36.1,26.3c0-0.9-0.7-1.6-1.6-1.6H18.8c0,0,0,0,0,0c0,0,0,0,0,0H3.1c-0.9,0-1.6,0.7-1.6,1.6l-1,18.8L2,45.5
				l29.6-16l3.9-1.9C35.9,27.3,36.1,26.9,36.1,26.3z"/>
			<path class="st11" d="M0.9,42.8l-0.1,1.3c0,0.6,0.4,1.1,0.9,1.3h0c0.3,0.1,0.6,0.1,0.9-0.1l27.6-15"/>
			<path class="st11" d="M32.7,29l2.8-1.4c0.4-0.3,0.6-0.7,0.6-1.3c0-0.9-0.7-1.6-1.6-1.6H18.9c0,0,0,0,0,0c0,0,0,0,0,0H3.1
				c-0.9,0-1.6,0.7-1.6,1.6L0.9,38"/>
		</g>
	</g>
	<g>
		<path class="st5" d="M38.6,25c-4.4,0-8,3.6-8,8s3.6,8,8,8s8-3.6,8-8C46.6,28.6,43,25,38.6,25z"/>
		<path class="st9" d="M38.9,22.8h-0.6c-0.2,0-0.3-0.1-0.3-0.3v-2.1c0-0.2,0.1-0.3,0.3-0.3h0.6c0.2,0,0.3,0.1,0.3,0.3v2.1
			C39.2,22.7,39.1,22.8,38.9,22.8z"/>
		<path class="st9" d="M38.9,18.9h-0.6c-0.2,0-0.3-0.1-0.3-0.3v-2.1c0-0.2,0.1-0.3,0.3-0.3h0.6c0.2,0,0.3,0.1,0.3,0.3v2.1
			C39.2,18.8,39.1,18.9,38.9,18.9z"/>
		<path class="st9" d="M38.9,18.9h-0.6c-0.2,0-0.3-0.1-0.3-0.3v-2.1c0-0.2,0.1-0.3,0.3-0.3h0.6c0.2,0,0.3,0.1,0.3,0.3v2.1
			C39.2,18.8,39.1,18.9,38.9,18.9z"/>
		<path class="st9" d="M38.9,15h-0.6c-0.2,0-0.3-0.1-0.3-0.3v-2.1c0-0.2,0.1-0.3,0.3-0.3h0.6c0.2,0,0.3,0.1,0.3,0.3v2.1
			C39.2,14.9,39.1,15,38.9,15z"/>
		<path class="st4" d="M38.6,25.1c-0.2,0-0.4,0-0.6,0v9.8l-2.7-3c0,0-0.1-0.1-0.1-0.1c0,0-0.1,0-0.1,0.1l-0.6,0.6
			c0,0-0.1,0.1-0.1,0.1c0,0.1,0,0.1,0.1,0.1l3.8,4.2l0,0l0,0c0.1,0.1,0.2,0.2,0.4,0.2h0h0h0h0c0.2,0,0.3-0.1,0.4-0.2l0,0l0,0
			l3.8-4.2c0,0,0.1-0.1,0.1-0.1c0-0.1,0-0.1-0.1-0.1l-0.6-0.6c0,0-0.1-0.1-0.1-0.1c-0.1,0-0.1,0-0.1,0.1l-2.7,3v-9.8
			C39,25.1,38.8,25.1,38.6,25.1z"/>
		<path class="st9" d="M38.6,23.7c-5.1,0-9.3,4.2-9.3,9.3s4.2,9.3,9.3,9.3c5.1,0,9.3-4.2,9.3-9.3C47.9,27.9,43.7,23.7,38.6,23.7z
			 M38.6,40.9c-4.4,0-7.9-3.6-7.9-7.9s3.6-7.9,7.9-7.9s7.9,3.6,7.9,7.9C46.5,37.4,43,40.9,38.6,40.9z"/>
	</g>
</g>
</svg>
