<?xml version="1.0" encoding="UTF-8"?>
<svg width="29px" height="26px" viewBox="0 0 29 26" version="1.1" xmlns="http://www.w3.org/2000/svg" xmlns:xlink="http://www.w3.org/1999/xlink">
    <!-- Generator: Sketch 55.2 (78181) - https://sketchapp.com -->
    <title>noun_Alert_574450</title>
    <desc>Created with Sketch.</desc>
    <g id="Mockup" stroke="none" stroke-width="1" fill="none" fill-rule="evenodd">
        <g id="商城字體選擇" transform="translate(-270.000000, -262.000000)" fill="#989898" fill-rule="nonzero">
            <g id="noun_Alert_574450" transform="translate(270.000000, 262.000000)">
                <g id="Group">
                    <path d="M25.24739,26 L3.75467614,26 C2.39781392,26 1.18489401,25.3020609 0.50764331,24.1317793 C-0.169607393,22.9638462 -0.169607393,21.5679681 0.51000413,20.4000375 L11.2563622,1.86587452 C11.9312521,0.69793908 13.146528,0 14.5010318,0 C15.8555357,0 17.070814,0.69793908 17.7480647,1.86587211 L28.492062,20.4000351 C29.1693127,21.5703167 29.1693127,22.9661949 28.492062,24.1341279 C27.8148113,25.3020609 26.6018938,26 25.24739,26 Z M12.8001709,2.96264648 L2.25817871,21.3513184 C1.61773682,22.649353 2.48187256,24 3.96496582,24 L25.1964722,24 C26.1067505,24 27.1546021,22.4089966 26.7572021,21.3513184 L16.0461538,2.96264648 C15.3982544,1.7791748 13.402832,1.7791748 12.8001709,2.96264648 Z" id="Shape"></path>
                    <path d="M14.5235922,17.382325 C13.8220452,17.382325 13.2543615,16.8232425 13.2543615,16.132325 L13.2543615,9.25 C13.2543615,8.5590825 13.8220452,8 14.5235922,8 C15.2251392,8 15.792823,8.5590825 15.792823,9.25 L15.792823,16.132325 C15.792823,16.8232425 15.2251392,17.382325 14.5235922,17.382325 Z" id="Path"></path>
                    <ellipse id="Oval" cx="14.5230769" cy="20.2974225" rx="1.52307692" ry="1.5"></ellipse>
                </g>
            </g>
        </g>
    </g>
</svg>