<?xml version="1.0" encoding="UTF-8"?>
<svg width="29px" height="29px" viewBox="0 0 29 29" version="1.1" xmlns="http://www.w3.org/2000/svg" xmlns:xlink="http://www.w3.org/1999/xlink">
    <!-- Generator: Sketch 55.2 (78181) - https://sketchapp.com -->
    <title>noun_List_1286702</title>
    <desc>Created with Sketch.</desc>
    <g id="Mockup" stroke="none" stroke-width="1" fill="none" fill-rule="evenodd">
        <g id="商城字體選擇" transform="translate(-270.000000, -302.000000)">
            <g id="noun_List_1286702" transform="translate(270.000000, 302.000000)">
                <g id="Group">
                    <path d="M26.28125,29 L2.71875,29 C1.21722584,29 0,27.7827742 0,26.28125 L0,2.71875 C0,1.21722584 1.21722584,0 2.71875,0 L26.28125,0 C27.7827742,0 29,1.21722584 29,2.71875 L29,26.28125 C29,27.7827742 27.7827742,29 26.28125,29 Z M2.71875,1.8125 C2.21824195,1.8125 1.8125,2.21824195 1.8125,2.71875 L1.8125,26.28125 C1.8125,26.7817581 2.21824195,27.1875 2.71875,27.1875 L26.28125,27.1875 C26.7817581,27.1875 27.1875,26.7817581 27.1875,26.28125 L27.1875,2.71875 C27.1875,2.21824195 26.7817581,1.8125 26.28125,1.8125 L2.71875,1.8125 Z" id="Shape" fill="#989898" fill-rule="nonzero"></path>
                    <circle id="Oval" fill="#989898" fill-rule="nonzero" cx="6.34375" cy="14.5" r="1.8125"></circle>
                    <circle id="Oval" fill="#989898" fill-rule="nonzero" cx="6.34375" cy="8.15625" r="1.8125"></circle>
                    <circle id="Oval" fill="#989898" fill-rule="nonzero" cx="6.34375" cy="20.84375" r="1.8125"></circle>
                    <rect id="Rectangle" fill="#989898" fill-rule="nonzero" x="9.96875" y="7.25" width="14.5" height="1.8125"></rect>
                    <rect id="Rectangle" fill="#989898" fill-rule="nonzero" x="9.96875" y="13.59375" width="14.5" height="1.8125"></rect>
                    <rect id="Rectangle" fill="#989898" fill-rule="nonzero" x="9.96875" y="19.9375" width="14.5" height="1.8125"></rect>
                    <path d="M2,1.1 C1.50294373,1.1 1.1,1.50294373 1.1,2 L1.1,27 C1.1,27.4970563 1.50294373,27.9 2,27.9 L27,27.9 C27.4970563,27.9 27.9,27.4970563 27.9,27 L27.9,2 C27.9,1.50294373 27.4970563,1.1 27,1.1 L2,1.1 Z" id="Path-2" stroke="#989898" stroke-width="2.2"></path>
                </g>
            </g>
        </g>
    </g>
</svg>